<svg xmlns="http://www.w3.org/2000/svg" viewBox="0 0 1204.21 552.48"><defs><style>.cls-1,.cls-3{fill:#31bd85;}.cls-1,.cls-2{opacity:0.4;}.cls-4{fill:#fff;}.cls-5{fill:#eaeaea;}.cls-6{fill:#f7cfcd;}.cls-7{fill:#060633;}.cls-8{fill:#1c2f3a;}.cls-9{fill:#050521;}.cls-10{fill:#ff9298;}.cls-11{fill:#fb9391;}.cls-12{fill:#3a556a;}.cls-13{fill:#576f7f;}.cls-14{fill:#ffe59a;}.cls-15{fill:#294354;}.cls-16{fill:#4c697c;}.cls-17{fill:#446072;}.cls-18{fill:#ddf1f2;}.cls-19{fill:#496777;}.cls-20{fill:#6c8996;}.cls-21{fill:#333;}.cls-22{fill:#5b5b5b;}.cls-23{fill:#ea8181;}.cls-24{fill:#59579e;}.cls-25{fill:#31aa7a;}.cls-26{fill:#fba116;}.cls-27{fill:#0075be;}</style></defs><g id="Layer_2" data-name="Layer 2"><g id="Ñëîé_1" data-name="Ñëîé 1"><path class="cls-1" d="M1119,479a186.13,186.13,0,0,1-27.41,50.3h-947A407.37,407.37,0,0,1,121.4,479C91.69,401.7,81.35,310.8,92.34,231.77c3.12-22.46,8-44.81,16.51-65.79,24.36-59.74,80.26-105.27,143.28-116.72,87.85-15.95,183.28,30,265.19-5.79C537,34.89,554.54,22,574.41,14,601.78,3,631.92,1.92,661.35,1,742.12-1.59,829-2.49,895.89,43.18c9.15,6.25,18,13.57,23.15,23.44,12.36,23.77-.43,53.29,5.41,79.48,6,27.09,31.18,45.94,57.19,55s54,10.81,80.6,17.81,53.66,21,65.76,46c7.94,16.35,8.44,35.22,8.79,53.42C1137.82,372.35,1137.22,429.47,1119,479Z"/><g class="cls-2"><rect class="cls-3" x="758.43" y="157.11" width="91.47" height="352.26"/><rect class="cls-3" x="161.47" y="157.11" width="91.47" height="352.26"/><rect class="cls-3" x="876.34" y="252.63" width="91.47" height="256.74"/><rect class="cls-3" x="825.18" y="210.03" width="91.47" height="299.34"/><rect class="cls-3" x="701.81" y="252.63" width="91.47" height="256.74"/><rect class="cls-3" x="247.43" y="252.63" width="91.47" height="256.74"/><rect class="cls-3" x="531.83" y="210.03" width="107.36" height="299.34"/><polygon class="cls-3" points="716.72 157.11 625.25 186.07 625.25 509.38 716.72 509.38 716.72 157.11"/><polygon class="cls-3" points="419.23 157.11 327.75 186.07 327.75 509.38 419.23 509.38 419.23 157.11"/><rect class="cls-3" x="965.91" y="252.63" width="1.9" height="256.74"/><rect class="cls-3" x="415.22" y="194.04" width="127.77" height="315.33"/><rect class="cls-3" x="436.26" y="172.03" width="85.69" height="51.33"/><rect class="cls-3" x="456.61" y="136.2" width="45" height="45.59"/><rect class="cls-3" x="475.15" y="93.87" width="7.91" height="50.89"/><rect class="cls-3" x="955.12" y="274.96" width="12.7" height="21.98"/><rect class="cls-3" x="674.85" y="188" width="12.7" height="21.98"/><rect class="cls-3" x="623.24" y="261.54" width="12.7" height="21.98"/><rect class="cls-3" x="817.54" y="210.03" width="12.7" height="21.98"/></g><path class="cls-3" d="M1010.87,83.66c21.17,3.13,40.24,14.08,42.41,37.89,2.06,22.54-15.14,44.85-6.63,67.18,8.73,22.91,33.65,30.75,24.55,59.1-3.24,10.09-8.46,19.93-8.2,30.53.56,22.21,22.23,35.77,32.82,53.19,13.66,22.49,8.6,53.47-9.59,71.94C1051.63,438.62,993,426,949.32,422.68c-25.35-1.94-48.23-14.93-54.57-41.27-7.36-30.58,11.92-45.32,24-69.5,11.72-23.54-2.71-51.26-3.06-77.55-.38-29.39,23.34-45.53,27.7-72.54,3.15-19.53-7.84-39.65,3.09-58.1C952.24,94,963,87.92,974,85.3A101,101,0,0,1,1010.87,83.66Z"/><path class="cls-4" d="M998.36,533.08a1.87,1.87,0,0,1-1.87-1.87V143.77a1.87,1.87,0,0,1,3.74,0V531.21A1.87,1.87,0,0,1,998.36,533.08Z"/><path class="cls-4" d="M998.36,319.37a1.86,1.86,0,0,1-1.7-1.1l-42.52-93a1.87,1.87,0,0,1,3.4-1.56l42.52,93a1.87,1.87,0,0,1-.93,2.48A1.91,1.91,0,0,1,998.36,319.37Z"/><path class="cls-4" d="M998.36,386.56a1.88,1.88,0,0,1-1.54-2.94l41.87-60.16a1.86,1.86,0,1,1,3.06,2.13l-41.86,60.16A1.84,1.84,0,0,1,998.36,386.56Z"/><path class="cls-3" d="M843.59,247.37c12,1.78,22.79,8,24,21.46,1.16,12.76-8.57,25.39-3.76,38,4.95,13,19.06,17.42,13.91,33.47-1.84,5.72-4.79,11.29-4.64,17.29.31,12.57,12.58,20.25,18.58,30.12,7.73,12.73,4.87,30.27-5.43,40.73-19.59,19.9-52.82,12.75-77.53,10.87-14.35-1.1-27.31-8.45-30.9-23.37-4.16-17.32,6.75-25.66,13.57-39.36,6.64-13.32-1.53-29-1.73-43.91-.22-16.64,13.21-25.78,15.68-41.07,1.79-11.06-4.44-22.45,1.75-32.9,3.28-5.53,9.36-9,15.61-10.43A57.3,57.3,0,0,1,843.59,247.37Z"/><path class="cls-4" d="M836.51,501.85a1.06,1.06,0,0,1-1.06-1.06V281.41a1.06,1.06,0,0,1,2.12,0V500.79A1.06,1.06,0,0,1,836.51,501.85Z"/><path class="cls-4" d="M836.51,380.84a1.06,1.06,0,0,1-1-.62l-24.08-52.68a1.06,1.06,0,0,1,1.93-.88l24.07,52.68a1,1,0,0,1-.52,1.4A1,1,0,0,1,836.51,380.84Z"/><path class="cls-4" d="M836.51,418.88a1,1,0,0,1-.6-.19,1.06,1.06,0,0,1-.27-1.47l23.71-34.07a1.06,1.06,0,0,1,1.73,1.21l-23.7,34.07A1.05,1.05,0,0,1,836.51,418.88Z"/><path class="cls-5" d="M0,507.93c0-24.61,269.57-44.56,602.11-44.56s602.1,19.95,602.1,44.56-269.57,44.55-602.1,44.55S0,532.53,0,507.93Z"/><path class="cls-4" d="M636.29,75.19c2.24,3.71.43,9-3.26,11.28s-8.62,1.89-12.44-.16c-2-1.09-3.89-2.63-6.15-3.1C608.91,82,602.11,88.79,597,84.88c-4.48-3.39-2.36-6.47,1.06-9.1C608.21,67.94,625,78.48,636.29,75.19Z"/><path class="cls-4" d="M337.36,106.81c3.52,5.83.68,14.1-5.11,17.68s-13.49,3-19.49-.25c-3.18-1.7-6.09-4.11-9.63-4.86-8.67-1.82-19.32,8.74-27.41,2.62-7-5.32-3.7-10.14,1.66-14.26C293.36,95.46,319.66,112,337.36,106.81Z"/><path class="cls-4" d="M778.25,117.2c-3.89,2.18-8.69,3-13.34,3.72l-10.25,1.65c-7.69,1.24-15.82,2.45-23.23.41-5.38-1.49-10-4.59-15.47-5.73s-11.31-.18-17-.43a15.54,15.54,0,0,1-4.74-.79c-3.15-1.17-5.1-4.13-4.54-6.88s3.59-5.05,7-5.35c4.55-.39,10.06,2.13,13.24-.52,1.11-.93,1.51-2.24,2.28-3.37,1.55-2.25,4.53-3.63,7.52-4.55,9.45-2.9,17.32-.85,26.77.22,6.42.72,12.28-.45,18.64-.88,8.1-.53,16.35.41,19.22,7.47C786.57,107.47,784,114,778.25,117.2Z"/><path class="cls-4" d="M793.72,45.46a20.23,20.23,0,0,1-6.67,1.86l-5.13.83c-3.84.61-7.9,1.22-11.61.2-2.69-.74-5-2.3-7.73-2.87s-5.66-.09-8.5-.21a7.4,7.4,0,0,1-2.36-.4,3.2,3.2,0,0,1-2.27-3.43A3.85,3.85,0,0,1,753,38.76c2.28-.2,5,1.07,6.63-.26a7.32,7.32,0,0,0,1.14-1.68,6.94,6.94,0,0,1,3.76-2.28c4.72-1.45,8.65-.42,13.38.11,3.21.36,6.14-.23,9.32-.44,4-.27,8.18.21,9.61,3.73C797.88,40.59,796.57,43.86,793.72,45.46Z"/><path class="cls-6" d="M1017,504s.59,14.3.49,14.47.9,1.71.9,1.71l3.87.67,3.52-1.63s-.4-12.77,0-14.56S1017,504,1017,504Z"/><path class="cls-7" d="M1025.73,519.21a10.06,10.06,0,0,1-8.26-1s-14.8,5.62-14.33,9.84c0,0-.62,1.26,5.79,1s16.4-.62,16.67-.77S1027.12,528.77,1025.73,519.21Z"/><path class="cls-6" d="M1070.87,500s7.47,12.21,7.47,12.41,1.62,1.05,1.62,1.05l3.7-1.28,2.28-3.14s-6.55-11-7.11-12.71S1070.87,500,1070.87,500Z"/><path class="cls-7" d="M1085.94,509.06a10,10,0,0,1-7.7,3.15s-10.2,12.1-7.73,15.56c0,0,.06,1.41,5.53-2s14-8.52,14.18-8.78S1091.81,516.74,1085.94,509.06Z"/><path class="cls-8" d="M1063,401.59c2.66,12.68,1.8,43.35,3.46,51.75s17.32,47.27,17.32,47.27L1069.69,508s-25-39.12-26-45.57-5-41.58-5-41.58-11.56,38.92-11.21,44.28,2.13,45.63,2.13,45.63l-16,.07s-5.39-43.73-4.45-54.14,11.29-53.66,11.29-53.66Z"/><path class="cls-6" d="M1012.05,354.63s-2.88,13.07-4.82,14.68-31.16,16.32-31.16,16.32l.59,6.22s44-9,44.27-12.21,3.49-21.76,3.49-21.76Z"/><path class="cls-4" d="M1049.67,327.16s7.79-3.93,16.92,2.86S1081,347.86,1081,347.86L1065.41,359l.18,45.53-48.13,1.82,1.77-45.87-10.43-5.16s6.4-25.83,16.8-28.58C1033.38,324.66,1049.67,327.16,1049.67,327.16Z"/><path class="cls-6" d="M1078.63,349.53s8.92,12.72,7.22,20.75S1056,386.47,1056,386.47l-6.24-2.39s22.87-16.35,22.21-17.65-5.31-8.33-5.31-8.33Z"/><path class="cls-9" d="M1044.31,384.9s-.94-5.78-1.39-8.81-4.46-1.94-6,1.76,1.7,5.27-2.62,7.09-8,5.09-3.89,5.51,7,1.23,8.35,2.63-34.36,54.85-3.56,55.89,38.55-10.77,31.54-29.83S1044.31,384.9,1044.31,384.9Z"/><path class="cls-9" d="M970,381.13s-.31-5.85-.52-8.91,3.94-2.84,6.25.44-.54,5.51,4.08,6.37,8.9,3.26,5,4.55-6.54,2.69-7.59,4.35,45.28,46.25,15.41,53.85-40-2.3-37.18-22.41S970,381.13,970,381.13Z"/><path class="cls-6" d="M1053,382.29a57.84,57.84,0,0,0-7.85.07c-2.1.36-4.4-.86-4.62.36s3.77,2.18,3.77,2.18-3.47,2.6-4.66,3.23-3,2.31-2.63,3.22,5.89-2.54,5.89-2.54-4.34,3.36-4.16,4.27,6.35-2.55,6.35-2.55-4.81,3.36-5,4,.61.81,2.6,0a19.92,19.92,0,0,0,3.82-2.08,44.63,44.63,0,0,0-3.47,3.06c-.28.45-.33,1.27,2.5-.19s8.43-5.62,10.38-8.83Z"/><path class="cls-9" d="M1043.85,382l.46,2.89h-3s-2.29-1.71-2.15-2,1.18-2.12,1.18-2.12Z"/><path class="cls-6" d="M966.63,388.88s5.11,2.7,5.72,1.76-5.43-4.43-5.43-4.43,6.53,3.64,7,2.87-5.55-5-5.55-5,5.89,4,6.36,3.38-5.48-5.72-5.48-5.72,4.51,4.46,5.66,3.81-4.68-5.95-5.91-6.35-1.26,1.65-1.26,1.65-1,.65-.89,1.5c0,0-1.6,1.62-1.12,2.59S964.24,386.92,966.63,388.88Z"/><path class="cls-10" d="M1033.33,305.45s-.85-1.57-1.68-1c-2.11,1.36-.31,3.51,1,4.06Z"/><path class="cls-6" d="M1033.37,300h0a3.83,3.83,0,0,1,0-.47,12.12,12.12,0,1,1,22.67,6.93c-1.37,2.73-2.56,5.06-3.78,7a17.34,17.34,0,0,0-2.59,10.67L1050,327c-7.77,3.3-10.83-.67-10.83-.67l.33-5.34a1.34,1.34,0,0,0-1.15-1.4h0C1029.14,318.19,1033,304.09,1033.37,300Z"/><path class="cls-7" d="M1045.25,307.37a1.13,1.13,0,1,1,2.25.2,1.13,1.13,0,0,1-2.25-.2Z"/><path class="cls-7" d="M1035.44,304.5a1.13,1.13,0,0,1,1.22-1,1.15,1.15,0,0,1,1,1.23,1.13,1.13,0,0,1-1.23,1A1.12,1.12,0,0,1,1035.44,304.5Z"/><path class="cls-7" d="M1049.43,306a.65.65,0,0,0,.35-.07.66.66,0,0,0,.3-.88,3.54,3.54,0,0,0-4.71-1.55.66.66,0,1,0,.49,1.23,2.23,2.23,0,0,1,3,.9A.69.69,0,0,0,1049.43,306Z"/><path class="cls-7" d="M1039.05,303.29a.68.68,0,0,0,.34-.06.67.67,0,0,0,.31-.89,3.55,3.55,0,0,0-4.71-1.54.67.67,0,0,0-.38.86.68.68,0,0,0,.86.37,2.23,2.23,0,0,1,3,.89A.64.64,0,0,0,1039.05,303.29Z"/><polygon class="cls-7" points="1058.56 302.51 1054.57 310.4 1052.41 309.77 1052.02 299.12 1058.56 302.51"/><path class="cls-6" d="M1052.1,309.48a1.73,1.73,0,0,1,1-.77,3,3,0,0,1,3.29.59c1.35,1.61-2,5.29-4.75,3.08C1051.65,312.38,1050.88,311.46,1052.1,309.48Z"/><path class="cls-10" d="M1039.12,310.94a2.25,2.25,0,0,0,2.06.11.19.19,0,0,0,.08-.26.2.2,0,0,0-.26-.09,1.82,1.82,0,0,1-2.16-.5c-.16-.17-.24-.31-.23-.41s.18-.29.42-.51a5.77,5.77,0,0,0,1.94-3.41.2.2,0,0,0-.15-.24.2.2,0,0,0-.23.15,5.4,5.4,0,0,1-1.82,3.21c-.31.27-.54.49-.56.79a1,1,0,0,0,.34.69A3,3,0,0,0,1039.12,310.94Z"/><path class="cls-4" d="M1043.48,313.38s-4.64.16-7.42-1.44c0,0,.41,3.59,3,4.1S1043.48,313.38,1043.48,313.38Z"/><path class="cls-7" d="M1035.72,295.43s-1.85,1.07-2.91,8.36c0,0,.12-8.22,1.11-9S1035.72,295.43,1035.72,295.43Z"/><path class="cls-7" d="M1055.35,287.38c-2.42-2.69-6.85-2.44-9.72-4.64a16.85,16.85,0,0,0,3.7,4.92L1036.57,284a28.22,28.22,0,0,0,4.31,3.56,54.21,54.21,0,0,1-10,0,1.93,1.93,0,0,0,.12,1.74c1.26,3.07,2.8,6.44,5.88,7.67a9.15,9.15,0,0,0,3,.58c4.07.2,8.56-.81,11.93,1.47,1.56,1.06,3.51,4.74,5.73,4.2C1059.58,302.74,1062.86,295.72,1055.35,287.38Z"/><path class="cls-11" d="M704.21,380.55s6.8,3.74,7.35,2.72-2.19-3.68-2.19-3.68Z"/><path class="cls-8" d="M93.72,419c-.58,0-1.16,0-1.73.07H74.32v8.64c-6.95,7.15-11.4,18.06-11.4,30.29s4.45,23.14,11.4,30.29V497h19.4c17,0,30.79-17.46,30.79-39S110.73,419,93.72,419Z"/><ellipse class="cls-12" cx="76.08" cy="457.96" rx="30.8" ry="39"/><ellipse class="cls-13" cx="76.08" cy="457.96" rx="13.16" ry="16.66"/><path class="cls-12" d="M535.52,419c-.58,0-1.16,0-1.73.07H516.12v8.64c-6.95,7.15-11.4,18.06-11.4,30.29s4.45,23.14,11.4,30.29V497h19.4c17,0,30.8-17.46,30.8-39S552.53,419,535.52,419Z"/><ellipse class="cls-8" cx="517.88" cy="457.96" rx="30.8" ry="39"/><path class="cls-14" d="M193.33,400H30.94L44.46,287.09C46.65,268.74,61.8,255,79.76,255H193.33Z"/><polygon class="cls-15" points="587.49 428.9 295.7 428.9 295.7 208.39 556.12 208.39 587.49 428.9"/><polygon class="cls-12" points="570.54 428.9 278.75 428.9 278.75 208.39 539.18 208.39 570.54 428.9"/><path class="cls-14" d="M136.19,395.87,31.5,393.77A5.41,5.41,0,0,0,26.11,398L27,438.32a5.94,5.94,0,0,0,5.89,5.83l14,.15a3.89,3.89,0,0,0,3.38-2.62s4.11-22.77,31-21.77c16.38.61,24,9.62,28.76,18.78a21.83,21.83,0,0,0,19.39,11.6H138c3,0,3.7-13.44,3.7-15.37V399.39C141.71,397.46,139.23,395.87,136.19,395.87Z"/><polygon class="cls-16" points="426.75 337.52 423.97 296.69 456.55 218.78 463.72 221.78 426.75 337.52"/><polygon class="cls-15" points="570.39 337.52 567.61 296.69 600.2 218.78 607.36 221.78 570.39 337.52"/><path class="cls-12" d="M631.09,273.86l-78.48-24.23L419,208.39,435.81,171,559.5,127.75l71.59,24.32C667.56,193.27,631.09,273.86,631.09,273.86Z"/><path class="cls-17" d="M552.61,249.63,419,208.39,435.81,171,559.5,127.75S579,182.88,552.61,249.63Z"/><rect class="cls-15" x="435.82" y="428.9" width="159.43" height="21.39" rx="5.46"/><rect class="cls-12" x="141.71" y="434.28" width="97.75" height="47.37" rx="9.23"/><path class="cls-7" d="M33.9,307.59S29.84,329.41,30,333s3.56,5.29,6.11,5.29Z"/><rect class="cls-7" x="33.73" y="305.77" width="15.11" height="32.49" rx="5.84"/><rect class="cls-18" x="35.41" y="307.59" width="12.29" height="29.09" rx="4.98"/><path class="cls-7" d="M41.29,306.37a.56.56,0,0,1-.51-.6V296.6s0-.05,0-.07a5.79,5.79,0,0,1,6.12-5.1c5,.15,7.19,0,7.21,0a.53.53,0,0,1,.53.55.56.56,0,0,1-.47.63c-.09,0-2.23.16-7.3,0a4.65,4.65,0,0,0-5.09,4v9.13A.56.56,0,0,1,41.29,306.37Z"/><path class="cls-8" d="M393.85,431c-.58,0-1.16,0-1.73.06H374.45v8.65c-6.95,7.15-11.4,18.06-11.4,30.29s4.45,23.14,11.4,30.29V509h19.4c17,0,30.8-17.46,30.8-39S410.86,431,393.85,431Z"/><ellipse class="cls-12" cx="376.21" cy="469.98" rx="30.8" ry="39"/><path class="cls-13" d="M363.05,470c0-9.2,5.89-16.66,13.16-16.66s13.16,7.46,13.16,16.66-5.89,16.66-13.16,16.66S363.05,479.18,363.05,470Z"/><polygon class="cls-19" points="435.81 433.38 123.47 433.38 123.47 208.39 417.36 208.39 435.81 433.38"/><path class="cls-7" d="M424.65,421.17h-290l.05-.67-.95-204.37H407.48l0,.57ZM136,419.91H423.29l-17-202.53H135.14Z"/><path class="cls-8" d="M441.62,432.39v14.39a3.5,3.5,0,0,1-3.46,3.51H419.34c-5.49-10-14.53-16.5-24.8-16.5-.55,0-1.14,0-1.68,0H378.18c-.34,0-.64,0-1,0s-.7,0-1,0h-.74v.05c-9.54.7-17.84,7-23,16.4H126.87a3.45,3.45,0,0,1-3.4-3.51V432.39a3.44,3.44,0,0,1,3.4-3.46H438.16A3.49,3.49,0,0,1,441.62,432.39Z"/><path class="cls-20" d="M169.41,383.21h0a8,8,0,0,1-7.94-7.94V258.05a8,8,0,0,1,7.94-7.94h0a8,8,0,0,1,7.94,7.94V375.27A8,8,0,0,1,169.41,383.21Z"/><rect class="cls-20" x="213.7" y="250.11" width="15.88" height="133.1" rx="7.94"/><rect class="cls-20" x="265.93" y="250.11" width="15.88" height="133.1" rx="7.94"/><path class="cls-20" d="M378.34,383.21h0a8,8,0,0,1-7.94-7.94V258.05a8,8,0,0,1,7.94-7.94h0a8,8,0,0,1,7.94,7.94V375.27A8,8,0,0,1,378.34,383.21Z"/><path class="cls-20" d="M326.11,383.21h0a8,8,0,0,1-7.94-7.94V258.05a8,8,0,0,1,7.94-7.94h0a8,8,0,0,1,7.94,7.94V375.27A8,8,0,0,1,326.11,383.21Z"/><path class="cls-7" d="M118.29,411.81,61,412.5a11.43,11.43,0,0,1-11.53-12.33L57,304.68c1.49-21.2,13.43-37.32,27.78-37.49l31.79-.38ZM84.77,267.3c-14.29.17-26.19,16.24-27.67,37.39l-7.48,95.49A11.31,11.31,0,0,0,61,412.38l57.14-.68-1.74-144.78Z"/><path class="cls-21" d="M90.23,362.62c0-4.06,3.8-7.36,8.48-7.36s8.47,3.3,8.47,7.36S103.39,370,98.71,370,90.23,366.68,90.23,362.62Z"/><rect class="cls-22" x="83.5" y="359.75" width="30.91" height="4.99" rx="0.43" transform="translate(197.92 724.49) rotate(180)"/><path class="cls-7" d="M112.94,272.72H94.34c-17.64,0-29.61,12.83-32.55,35.84l-2.21,26.51,53.06.78Z"/><path class="cls-6" d="M702.69,374.34s10.35.89,12.32,3.1.83,7.4.83,7.4l-14.23-5.25Z"/><path class="cls-10" d="M632.14,311.91s-.84-1.42-1.59-.9c-1.91,1.32-.18,3.26,1,3.73l.57-2.83Z"/><path class="cls-6" d="M632,306.83h0c0-.15,0-.29,0-.44a11.22,11.22,0,1,1,21.18,5.75c-1.18,2.56-2.22,4.75-3.29,6.56a16,16,0,0,0-2.08,9.95l.3,2.72c-7.08,3.28-10-.3-10-.3l.15-4.95a1.26,1.26,0,0,0-1.11-1.27h0c-8.5-1-5.34-14.18-5.13-18Z"/><path class="cls-9" d="M643.22,313.34a1,1,0,0,1,2.09.12,1.05,1.05,0,0,1-1.1,1,1,1,0,0,1-1-1.1Z"/><path class="cls-9" d="M634.06,311a1,1,0,1,1,1,1.1,1,1,0,0,1-1-1.1Z"/><path class="cls-9" d="M647.05,311.92a.64.64,0,0,0,.32-.07.62.62,0,0,0,.25-.83,3.27,3.27,0,0,0-4.4-1.29.62.62,0,0,0-.32.81.6.6,0,0,0,.8.31,2.08,2.08,0,0,1,2.84.74.6.6,0,0,0,.51.33Z"/><path class="cls-9" d="M637.36,309.75a.52.52,0,0,0,.32-.07.61.61,0,0,0,.26-.82,3.28,3.28,0,0,0-4.41-1.3.62.62,0,0,0,.49,1.13,2,2,0,0,1,2.83.74.64.64,0,0,0,.51.32Z"/><polygon class="cls-10" points="655.82 307.55 651.93 315.87 649.92 315.35 649.24 303.98 655.82 307.55 655.82 307.55"/><path class="cls-6" d="M649.62,315.09a1.67,1.67,0,0,1,.91-.74,2.81,2.81,0,0,1,3.06.45c1.3,1.45-1.67,4.95-4.3,3,0,0-.74-.82.33-2.69Z"/><path class="cls-10" d="M637.66,316.82a2.09,2.09,0,0,0,1.9.05.18.18,0,0,0-.17-.32,1.7,1.7,0,0,1-2-.4c-.16-.16-.24-.28-.23-.37s.15-.28.37-.49a5.27,5.27,0,0,0,1.7-3.21.19.19,0,0,0-.14-.22.2.2,0,0,0-.22.15,4.94,4.94,0,0,1-1.59,3c-.27.26-.48.47-.49.74a.89.89,0,0,0,.34.63,2.26,2.26,0,0,0,.54.42Z"/><path class="cls-4" d="M641.76,319s-4.28.29-6.91-1.11c0,0,.49,3.3,2.95,3.7s4-2.59,4-2.59Z"/><path class="cls-10" d="M634.05,302.58s-1.67,1-2.44,7.81c0,0-.13-7.6.76-8.39s1.68.58,1.68.58Z"/><path class="cls-6" d="M626.67,508.7s.17,12.08.08,12.25.88,1.68.88,1.68l3.81.69,3.48-1.6s-.31-11.23.05-13-8.3,0-8.3,0Z"/><path class="cls-7" d="M634.92,521.72a9.93,9.93,0,0,1-8.15-1s-14.62,5.48-14.17,9.65c0,0-.63,1.24,5.71,1s16.18-.55,16.44-.69,1.51.52.17-8.92Z"/><path class="cls-6" d="M663.35,508.7s.18,12.08.08,12.25.89,1.68.89,1.68l3.81.69,3.47-1.6s-.3-11.23.06-13-8.31,0-8.31,0Z"/><path class="cls-7" d="M671.6,521.72a9.91,9.91,0,0,1-8.14-1s-14.63,5.48-14.18,9.65c0,0-.62,1.24,5.71,1s16.19-.55,16.45-.69,1.5.52.16-8.92Z"/><path class="cls-7" d="M667,393.11l-47,3.17-4.18-30.87s2.32-29,9.27-32.75c4.31-2.3,18.55-3.16,29.88-1.17,1.45.25,2.85.56,4.18.91,5,1.33,9,3.37,10.43,6.28C672.49,344.57,667,393.11,667,393.11Z"/><path class="cls-14" d="M621.63,354l3.47-21.29a17.37,17.37,0,0,1,4.16-1.21l-3.78,22.06-3.85.44Z"/><path class="cls-14" d="M659.16,332.4v21l-5.45,1.19L655,331.49C656.43,331.74,657.83,332.05,659.16,332.4Z"/><path class="cls-14" d="M618.25,475.82c.15,2,.31,3.95.48,6q.38,4.45.82,9.15c.18,2,.38,4,.58,6q.95,9.36,2.19,19.67h15.29s.31-8.18.81-19.67c.09-1.91.17-3.91.27-6,.13-2.93.28-6,.43-9.15q.14-3,.29-6c1.18-23.31,2.77-48.44,4.23-51.06,1.83-3.3,5.31,23.28,9.63,51.06q.47,3,1,6c.49,3.07,1,6.14,1.5,9.15.34,2,.69,4,1,6,1.21,6.79,2.46,13.17,3.74,18.67l13-2.62s-.06-6.57-.21-16.05q0-2.83-.1-6c0-2.91-.11-6-.17-9.15q-.06-3-.13-6c-.39-17.54-1-36.28-1.88-44-1.86-16.22-4-38.71-4-38.71h-4.79l-3-39.6H621.63l-3.71,43.14S614,420.63,618.25,475.82Z"/><path class="cls-23" d="M655,354.86a1.35,1.35,0,1,1,1.34,1.34,1.34,1.34,0,0,1-1.34-1.34Z"/><path class="cls-23" d="M621.9,355.29a1.35,1.35,0,1,1,1.35,1.35,1.35,1.35,0,0,1-1.35-1.35Z"/><path class="cls-24" d="M660,309.75s2.92-14.15-8.56-18.84S632.14,292,629.7,300C629.7,300,630.53,306.78,660,309.75Z"/><path class="cls-24" d="M660,309.75s-33.56-3.25-35.25-5.77,5.23-5,5.23-5Z"/><path class="cls-4" d="M653.27,475.82q.47,3,1,6H673q-.06-3-.13-6Z"/><path class="cls-4" d="M655.72,491c.34,2,.69,4,1,6h16.5q0-2.83-.1-6Z"/><path class="cls-4" d="M618.25,475.82c.15,2,.31,3.95.48,6h20.39q.14-3,.29-6Z"/><path class="cls-4" d="M619.55,491c.18,2,.38,4,.58,6h18.29c.09-1.91.17-3.91.27-6Z"/><path class="cls-6" d="M626.26,389s2.93-3.57,4.84-4.69,2.91-3.63,3.9-2.81-1.53,4.26-1.53,4.26a11.34,11.34,0,0,0,2.73-.2c1.37-.29,2.79-.09,3.09.9s-2.09,1.45-2.09,1.45,2.63-.3,2.69.9c0,1-3.27,1.94-3.27,1.94a20.71,20.71,0,0,1,2.88-.14c.75.11,1.38,1.22-.72,1.94s-2,.68-2,.68a17.19,17.19,0,0,1,2.8.11c.52.17,1.06,1.34-.78,1.65-3.26.55-8,1.5-11.68.26l-.82-6.25Z"/><path class="cls-7" d="M625.1,332.66S604,345.3,602.16,376.81c-1.4,23.49,27.4,20.31,27.4,20.31l-2.23-9.21s-11.72-2.05-12.9-7.08,4-14.55,4-14.55Z"/><path class="cls-7" d="M669.59,338.68s16.19,32.68,36.25,33.94l-2.15,11s-33.26,2.59-38.28-25.53Z"/><polygon class="cls-25" points="290.93 524.33 202.22 524.33 193.28 380.62 299.96 380.62 290.93 524.33"/><polygon class="cls-4" points="234.38 426.52 242.05 430.81 250.42 418.04 240.06 418.04 234.38 426.52"/><path class="cls-4" d="M249.33,430.19l-3,1.72,9.77.42,3.73-7.5-2.85,1.5-4.83-7.94s-5.15,7.67-5.2,7.83c0,0,2.42,4,2.6,4.09Z"/><polygon class="cls-4" points="261.8 434.02 254.2 438.45 260.94 452.15 266.21 443.23 261.8 434.02"/><path class="cls-4" d="M251.05,444l0-2.48-5.33,8.2,4.57,7-.07-3.31,9.51,0s-4.65-9.28-4.76-9.41Z"/><polygon class="cls-4" points="241.61 453.46 241.53 444.36 227.33 444.02 231.99 453.46 241.61 453.46"/><path class="cls-4" d="M237.89,438l2.85,2L237,431l-8.37-.21,2.56,1.94L227,442.4s8.73.15,8.9.13c0,0,1.95-4.51,2-4.72Z"/><path class="cls-4" d="M231.61,464.73a3.21,3.21,0,0,1,3.24-3.26,3.38,3.38,0,0,1,2.42.86l-.7.83a2.46,2.46,0,0,0-1.76-.67,2.14,2.14,0,0,0-2,2.24,2.1,2.1,0,0,0,2.14,2.25,2.57,2.57,0,0,0,1.52-.48v-1.18h-1.61v-1h2.68V467a4,4,0,0,1-2.63,1A3.13,3.13,0,0,1,231.61,464.73Z"/><path class="cls-4" d="M238.94,461.58H240v5.29h3.32v1h-4.42Z"/><path class="cls-4" d="M246.74,461.53h1l2.77,6.35h-1.16l-.64-1.52h-3l-.65,1.52H244Zm1.58,3.85-1.09-2.52-1.08,2.52Z"/><path class="cls-4" d="M251.09,467l.67-.79a2.9,2.9,0,0,0,2,.82c.68,0,1.11-.32,1.11-.81s-.25-.7-1.42-1c-1.34-.32-2.1-.72-2.1-1.89a1.93,1.93,0,0,1,2.15-1.83,3.52,3.52,0,0,1,2.29.79l-.59.84a2.9,2.9,0,0,0-1.71-.65c-.65,0-1,.33-1,.77s.29.7,1.49,1,2,.8,2,1.86S255,468,253.72,468A3.88,3.88,0,0,1,251.09,467Z"/><path class="cls-4" d="M256.76,467l.67-.79a2.89,2.89,0,0,0,2,.82c.69,0,1.12-.32,1.12-.81s-.25-.7-1.42-1c-1.34-.32-2.1-.72-2.1-1.89a1.93,1.93,0,0,1,2.15-1.83,3.52,3.52,0,0,1,2.29.79l-.6.84a2.86,2.86,0,0,0-1.71-.65c-.64,0-1,.33-1,.77s.29.7,1.49,1,2,.8,2,1.86-.93,1.88-2.25,1.88A3.86,3.86,0,0,1,256.76,467Z"/><rect class="cls-25" x="186.21" y="374.12" width="120.82" height="15.78"/><polygon class="cls-26" points="800.98 530.76 712.27 530.76 703.34 387.05 810.01 387.05 800.98 530.76"/><polygon class="cls-4" points="744.43 432.94 752.1 437.24 760.47 424.46 750.12 424.46 744.43 432.94"/><path class="cls-4" d="M759.39,436.62l-3,1.72,9.77.41,3.73-7.5L767,432.76l-4.83-7.95s-5.15,7.68-5.2,7.84c0,0,2.43,4,2.6,4.09Z"/><polygon class="cls-4" points="771.85 440.45 764.25 444.88 770.99 458.58 776.26 449.66 771.85 440.45"/><path class="cls-4" d="M761.1,450.45l0-2.48-5.32,8.2,4.56,7-.07-3.31,9.51,0s-4.65-9.28-4.76-9.41Z"/><polygon class="cls-4" points="751.66 459.88 751.58 450.79 737.39 450.45 742.04 459.88 751.66 459.88"/><path class="cls-4" d="M748,444.44l2.84,2-3.75-9-8.37-.21,2.56,1.94-4.14,9.65s8.73.14,8.9.13c0,0,2-4.52,2-4.73Z"/><rect class="cls-26" x="696.27" y="380.55" width="120.82" height="15.78"/><path class="cls-4" d="M738.14,467.84h2.46a2.1,2.1,0,0,1,2.37,2.1c0,1.4-1.12,2.13-2.49,2.13h-1.24v2h-1.1Zm2.37,3.24c.83,0,1.35-.46,1.35-1.13s-.53-1.11-1.35-1.11h-1.27v2.24Z"/><path class="cls-4" d="M744.09,467.84h1.1v5.24h3.28v1h-4.38Z"/><path class="cls-4" d="M751.82,467.8h1l2.74,6.27h-1.15l-.64-1.5h-2.94l-.64,1.5h-1.13Zm1.56,3.8-1.07-2.5-1.07,2.5Z"/><path class="cls-4" d="M756.13,473.16l.66-.78a2.86,2.86,0,0,0,2,.81c.67,0,1.1-.31,1.1-.8s-.25-.69-1.41-1c-1.32-.31-2.07-.71-2.07-1.87a1.91,1.91,0,0,1,2.13-1.81,3.48,3.48,0,0,1,2.26.78l-.59.83a2.81,2.81,0,0,0-1.69-.64c-.64,0-1,.33-1,.76s.28.69,1.47,1,2,.79,2,1.84-.92,1.86-2.23,1.86A3.84,3.84,0,0,1,756.13,473.16Z"/><path class="cls-4" d="M763.65,468.85h-2v-1h5.06v1h-2v5.22h-1.1Z"/><path class="cls-4" d="M768,467.84h1.1v6.23H768Z"/><path class="cls-4" d="M770.44,471a3.16,3.16,0,0,1,3.21-3.23,3.24,3.24,0,0,1,2.44,1l-.7.81a2.49,2.49,0,0,0-1.75-.77,2.22,2.22,0,0,0,0,4.43,2.42,2.42,0,0,0,1.79-.81l.71.72a3.23,3.23,0,0,1-2.53,1.1A3.14,3.14,0,0,1,770.44,471Z"/><polygon class="cls-27" points="934.15 530.76 845.44 530.76 836.51 387.05 943.18 387.05 934.15 530.76"/><polygon class="cls-4" points="877.6 432.94 885.27 437.24 893.65 424.46 883.29 424.46 877.6 432.94"/><path class="cls-4" d="M892.56,436.62l-3,1.72,9.77.41,3.73-7.5-2.84,1.51-4.83-7.95s-5.15,7.68-5.21,7.84c0,0,2.43,4,2.6,4.09Z"/><polygon class="cls-4" points="905.02 440.45 897.42 444.88 904.17 458.58 909.43 449.66 905.02 440.45"/><path class="cls-4" d="M894.27,450.45l.05-2.48-5.32,8.2,4.56,7-.06-3.31,9.51,0s-4.65-9.28-4.76-9.41Z"/><polygon class="cls-4" points="884.84 459.88 884.75 450.79 870.56 450.45 875.22 459.88 884.84 459.88"/><path class="cls-4" d="M881.12,444.44l2.84,2-3.75-9-8.37-.21,2.56,1.94-4.14,9.65s8.73.14,8.9.13c0,0,2-4.52,2-4.73Z"/><rect class="cls-27" x="829.44" y="380.55" width="120.82" height="15.78"/><path class="cls-4" d="M875.32,468.17h2.46a2.1,2.1,0,0,1,2.37,2.1c0,1.4-1.13,2.13-2.5,2.13h-1.23v2h-1.1Zm2.37,3.24c.83,0,1.34-.46,1.34-1.13s-.52-1.11-1.34-1.11h-1.27v2.24Z"/><path class="cls-4" d="M882.86,468.13h1l2.74,6.27h-1.15l-.64-1.5h-2.94l-.64,1.5h-1.13Zm1.56,3.8-1.07-2.5-1.07,2.5Z"/><path class="cls-4" d="M887.69,468.17h2.45a2.1,2.1,0,0,1,2.37,2.1c0,1.4-1.12,2.13-2.49,2.13h-1.24v2h-1.09Zm2.37,3.24c.82,0,1.34-.46,1.34-1.13s-.53-1.11-1.34-1.11h-1.28v2.24Z"/><path class="cls-4" d="M893.64,468.17h4.62v1h-3.53v1.62h3.13v1h-3.13v1.67h3.57v1h-4.66Z"/><path class="cls-4" d="M899.61,468.17h2.78c1.46,0,2.31.78,2.31,2a1.86,1.86,0,0,1-1.49,1.88l1.69,2.36h-1.29l-1.55-2.17H900.7v2.17h-1.09Zm2.7,3.09c.78,0,1.28-.41,1.28-1.06s-.48-1-1.29-1h-1.6v2.09Z"/></g></g></svg>