<svg xmlns="http://www.w3.org/2000/svg" viewBox="0 0 1913.74 324.73"><defs><style>.cls-1{fill:#77bd0d;}.cls-2{fill:#92d205;}.cls-3{fill:#614f4b;}.cls-4{fill:#b2bcc1;}.cls-5{fill:#ff6a4d;}.cls-6{fill:#d9dac1;}.cls-7{fill:#195467;}.cls-8{fill:#e1e2e1;}.cls-9{fill:#2bb673;}.cls-10{fill:#1c75bc;}.cls-11{fill:#7bcfe4;}.cls-12{fill:#ffde17;}.cls-13{fill:#3fa4a9;}.cls-14{fill:#fff;}</style></defs><g id="Layer_2" data-name="Layer 2"><g id="Ñëîé_1" data-name="Ñëîé 1"><path class="cls-1" d="M168.85,41.3v130a65,65,0,0,0,0-130Z"/><path class="cls-2" d="M104,106.32a64.94,64.94,0,0,0,64.85,65V41.3A64.94,64.94,0,0,0,104,106.32Z"/><rect class="cls-3" x="160.75" y="77.5" width="16.21" height="144.58"/><polygon class="cls-3" points="168.85 147.99 176.66 155.81 217.84 114.53 210.03 106.7 168.85 147.99"/><polygon class="cls-3" points="168.85 123.05 161.05 130.88 131.85 101.6 139.65 93.77 168.85 123.05"/><rect class="cls-4" y="222.6" width="1913.74" height="102.13"/><polygon class="cls-5" points="1336.73 132.14 1323.4 132.14 1326.29 119.49 1333.85 119.49 1336.73 132.14"/><path class="cls-6" d="M1351.78,129.53h-37.16A12.62,12.62,0,0,0,1302,142.18v82.38a12.62,12.62,0,0,0,12.61,12.65h52.62a12.63,12.63,0,0,0,12.61-12.65V192.85a12.56,12.56,0,0,0-.55-3.7l-15.46-50.67A12.62,12.62,0,0,0,1351.78,129.53Z"/><path class="cls-1" d="M1240,129.53l-36.77,53.84,6.49,53.84h83.68a8.67,8.67,0,0,0,8.66-8.67V138.2a8.67,8.67,0,0,0-8.66-8.67Z"/><path class="cls-2" d="M1209.67,237.21l-21.36-29.55a35.12,35.12,0,0,1,3.66-45.43l22.62-22.52a34.89,34.89,0,0,1,24.63-10.18h11.9L1232,154.25a111.47,111.47,0,0,0-22.79,78.06Z"/><path class="cls-7" d="M1270.22,239a24.87,24.87,0,1,1-24.87-24.94A24.9,24.9,0,0,1,1270.22,239Z"/><path class="cls-8" d="M1245.35,252.39A13.37,13.37,0,1,1,1258.69,239,13.37,13.37,0,0,1,1245.35,252.39Z"/><path class="cls-7" d="M1365.21,239a24.87,24.87,0,1,1-24.87-24.94A24.9,24.9,0,0,1,1365.21,239Z"/><path class="cls-8" d="M1340.34,252.39A13.37,13.37,0,1,1,1353.67,239,13.37,13.37,0,0,1,1340.34,252.39Z"/><path class="cls-9" d="M1219.46,154.83a4.1,4.1,0,1,1-4.1-4.11A4.11,4.11,0,0,1,1219.46,154.83Z"/><path class="cls-10" d="M1215.36,160.38a5.56,5.56,0,1,1,5.54-5.55A5.55,5.55,0,0,1,1215.36,160.38Zm0-8.22a2.67,2.67,0,1,0,2.66,2.67A2.67,2.67,0,0,0,1215.36,152.16Z"/><path class="cls-9" d="M1232,191.49a4.1,4.1,0,1,1-4.1-4.1A4.11,4.11,0,0,1,1232,191.49Z"/><path class="cls-10" d="M1227.92,197.05a5.56,5.56,0,1,1,5.54-5.56A5.55,5.55,0,0,1,1227.92,197.05Zm0-8.22a2.67,2.67,0,1,0,2.66,2.66A2.67,2.67,0,0,0,1227.92,188.83Z"/><polygon class="cls-9" points="1228.95 190.16 1225.07 191.49 1213.01 156.16 1216.89 154.83 1228.95 190.16"/><path class="cls-11" d="M1310.65,172.17V148.32a10.11,10.11,0,0,1,10.1-10.12h26.49a10.11,10.11,0,0,1,9.66,7.16l7.27,23.85a10.12,10.12,0,0,1-9.65,13.08h-33.77A10.11,10.11,0,0,1,1310.65,172.17Z"/><path class="cls-12" d="M1379.2,215.89h-.06v-17.7h.06a6.06,6.06,0,0,1,6.06,6.07v5.56A6.07,6.07,0,0,1,1379.2,215.89Z"/><rect class="cls-13" x="1317.07" y="195.96" width="22.81" height="8.81"/><path class="cls-14" d="M1848.44,280.29h-46.22V267.05h46.22Zm-92.43,0H1709.8V267.05H1756Zm-92.42,0h-46.22V267.05h46.22Zm-92.43,0H1525V267.05h46.21Zm-92.43,0h-46.21V267.05h46.21Zm-92.42,0h-46.22V267.05h46.22Zm-92.42,0h-46.22V267.05h46.22Zm-92.43,0h-46.21V267.05h46.21Zm-92.43,0h-46.21V267.05H1109Zm-92.42,0H970.4V267.05h46.21Zm-92.42,0H878V267.05h46.22Zm-92.43,0H785.55V267.05h46.21Zm-92.42,0H693.12V267.05h46.22Zm-92.43,0H600.7V267.05h46.21Zm-92.42,0H508.27V267.05h46.22Zm-92.43,0H415.85V267.05h46.21Zm-92.42,0H323.42V267.05h46.22Zm-92.43,0H231V267.05h46.21Zm-92.42,0H138.57V267.05h46.22Zm-92.43,0H46.15V267.05H92.36Z"/><path class="cls-1" d="M1819.1,0V160.84A80.42,80.42,0,0,0,1819.1,0Z"/><path class="cls-2" d="M1738.89,80.42a80.32,80.32,0,0,0,80.21,80.42V0A80.31,80.31,0,0,0,1738.89,80.42Z"/><rect class="cls-3" x="1809.07" y="44.78" width="20.05" height="178.82"/><polygon class="cls-3" points="1819.1 131.95 1828.75 141.63 1879.68 90.57 1870.03 80.89 1819.1 131.95"/><polygon class="cls-3" points="1819.1 101.11 1809.44 110.79 1773.33 74.58 1782.98 64.9 1819.1 101.11"/></g></g></svg>