<svg xmlns="http://www.w3.org/2000/svg" viewBox="0 0 224.37 224.37"><defs><style>.cls-1{fill:#d2a677;}.cls-2{fill:#b38a68;}.cls-3{fill:#a87858;}.cls-4{fill:#e27f84;}.cls-5{fill:#c9646d;}.cls-6{fill:#edf6ff;}.cls-7{fill:#d8e2f3;}</style></defs><g id="Layer_2" data-name="Layer 2"><g id="Ñëîé_1" data-name="Ñëîé 1"><path class="cls-1" d="M101,220.63a3.74,3.74,0,0,1-3.73,3.74h-15a3.74,3.74,0,0,1-3.74-3.74V169.84H101v50.79Z"/><path class="cls-2" d="M90.58,169.84v50.79a3.73,3.73,0,0,1-3.74,3.73H97.23a3.73,3.73,0,0,0,3.73-3.73V169.84Z"/><path class="cls-3" d="M155,209.41H24.46l4.28-15h122Z"/><path class="cls-1" d="M157.81,148.62l20.32,71a3.74,3.74,0,0,1-3.6,4.77H159.88a3.75,3.75,0,0,1-3.6-2.72l-16.35-57.11V143h17.86Z"/><path class="cls-1" d="M21.68,148.62l-20.32,71A3.74,3.74,0,0,0,5,224.37H19.61a3.75,3.75,0,0,0,3.6-2.72l16.35-57.11V143H21.7Z"/><path class="cls-2" d="M178.13,219.6l-20.32-71,0-5.65H147.4l0,5.65,20.31,71a3.74,3.74,0,0,1-3.59,4.77h10.38A3.74,3.74,0,0,0,178.13,219.6Z"/><path class="cls-2" d="M31.13,143v14.74l-18.3,63.94a3.75,3.75,0,0,1-3.6,2.72H19.61a3.75,3.75,0,0,0,3.6-2.72l16.35-57.11V143Z"/><path class="cls-3" d="M143,175.4h22.44l-1.94-6.77H141.1Z"/><path class="cls-3" d="M14,175.49H36.43l1.94-6.78H15.92Z"/><circle class="cls-4" cx="89.75" cy="89.75" r="89.75"/><path class="cls-5" d="M89.75,0C88,0,86.27.06,84.55.15a89.74,89.74,0,0,1,0,179.19c1.72.1,3.45.15,5.2.15A89.75,89.75,0,0,0,89.75,0Z"/><circle class="cls-6" cx="89.75" cy="89.75" r="59.83"/><path class="cls-7" d="M89.75,29.92c-1.75,0-3.48.08-5.2.22a59.83,59.83,0,0,1,0,119.21c1.72.15,3.45.23,5.2.23a59.83,59.83,0,0,0,0-119.66Z"/><circle class="cls-4" cx="89.75" cy="89.75" r="29.92"/><path class="cls-5" d="M89.75,59.83a29.67,29.67,0,0,0-5.2.46,29.91,29.91,0,0,1,0,58.91,29.91,29.91,0,1,0,5.2-59.37Z"/><path class="cls-5" d="M89.75,75.14a3.39,3.39,0,0,0-3.39,3.39v7.83H78.53a3.39,3.39,0,1,0,0,6.77h7.83V101a3.39,3.39,0,1,0,6.77,0V78.53A3.38,3.38,0,0,0,89.75,75.14Z"/><path class="cls-6" d="M164.53,97.23,178.38,118a3.74,3.74,0,0,0,3.11,1.66h39.13a3.74,3.74,0,0,0,3.11-5.81L212.65,97.23v-15l11.08-16.63a3.74,3.74,0,0,0-3.11-5.81H181.49a3.75,3.75,0,0,0-3.11,1.67L164.53,82.27Z"/><path class="cls-7" d="M212.65,97.23v-15l11.08-16.63a3.74,3.74,0,0,0-3.11-5.81H210.24a3.74,3.74,0,0,1,3.11,5.81L202.27,82.27v15l11.08,16.62a3.74,3.74,0,0,1-3.11,5.81h10.38a3.74,3.74,0,0,0,3.11-5.81Z"/><path class="cls-7" d="M197.86,59.83l-18.69,28a3.37,3.37,0,0,0,0,3.75l18.69,28H206L186.05,89.75,206,59.83Z"/><path class="cls-1" d="M213.38,97.23H93.25a3.51,3.51,0,0,1-3.5-3.51v-8a3.5,3.5,0,0,1,3.5-3.5H213.38a3.51,3.51,0,0,1,3.51,3.5v8A3.51,3.51,0,0,1,213.38,97.23Z"/><path class="cls-2" d="M213.27,82.27H202.89a3.6,3.6,0,0,1,3.61,3.61v7.73a3.6,3.6,0,0,1-3.61,3.61h10.38a3.61,3.61,0,0,0,3.62-3.61V85.88A3.61,3.61,0,0,0,213.27,82.27Z"/></g></g></svg>