<svg xmlns="http://www.w3.org/2000/svg" xmlns:xlink="http://www.w3.org/1999/xlink" viewBox="0 0 284.31 602.55"><defs><style>.cls-1{fill:none;}.cls-2{isolation:isolate;}.cls-3{fill:url(#linear-gradient);}.cls-4{fill:url(#linear-gradient-2);}.cls-5{fill:url(#linear-gradient-3);}.cls-6{fill:url(#linear-gradient-4);}.cls-7{fill:url(#linear-gradient-5);}.cls-8{fill:url(#linear-gradient-6);}.cls-9{clip-path:url(#clip-path);}.cls-10{fill:#fafafa;}.cls-11{fill:#f5f5f5;}.cls-12{mix-blend-mode:screen;}.cls-13{fill:url(#linear-gradient-7);}.cls-14{fill:url(#linear-gradient-8);}.cls-15{fill:url(#linear-gradient-9);}.cls-16{fill:url(#linear-gradient-10);}</style><linearGradient id="linear-gradient" x1="282.53" y1="126.29" x2="282.53" y2="193.16" gradientUnits="userSpaceOnUse"><stop offset="0" stop-color="#111022"/><stop offset="0.5" stop-color="#2a2a4a"/><stop offset="1" stop-color="#111022"/></linearGradient><linearGradient id="linear-gradient-2" x1="1.78" y1="112.23" x2="1.78" y2="153.66" xlink:href="#linear-gradient"/><linearGradient id="linear-gradient-3" x1="1.78" y1="67.36" x2="1.78" y2="91.7" xlink:href="#linear-gradient"/><linearGradient id="linear-gradient-4" x1="1.78" y1="160.65" x2="1.78" y2="201.91" xlink:href="#linear-gradient"/><linearGradient id="linear-gradient-5" x1="2.87" y1="279.83" x2="281.44" y2="279.83" gradientUnits="userSpaceOnUse"><stop offset="0" stop-color="#343358"/><stop offset="0.5" stop-color="#474777"/><stop offset="1" stop-color="#343358"/></linearGradient><linearGradient id="linear-gradient-6" x1="12.18" y1="279.83" x2="272.13" y2="279.83" gradientUnits="userSpaceOnUse"><stop offset="0" stop-color="#201f39"/><stop offset="0.5" stop-color="#3c3c64"/><stop offset="1" stop-color="#201f39"/></linearGradient><clipPath id="clip-path"><rect class="cls-1" x="-124.78" y="153.44" width="533.87" height="252.77" rx="14.64" transform="translate(421.98 137.68) rotate(90)"/></clipPath><linearGradient id="linear-gradient-7" x1="272.06" y1="42.48" x2="272.06" y2="521.57" gradientUnits="userSpaceOnUse"><stop offset="0"/><stop offset="0.23" stop-color="#303030"/><stop offset="0.76" stop-color="#303030"/><stop offset="1"/></linearGradient><linearGradient id="linear-gradient-8" x1="12.17" y1="520.59" x2="12.17" y2="37.25" xlink:href="#linear-gradient-7"/><linearGradient id="linear-gradient-9" x1="42.59" y1="9.11" x2="238.4" y2="9.11" gradientUnits="userSpaceOnUse"><stop offset="0"/><stop offset="0.23" stop-color="#242424"/><stop offset="0.76" stop-color="#242424"/><stop offset="1"/></linearGradient><linearGradient id="linear-gradient-10" x1="42.59" y1="550.47" x2="238.4" y2="550.47" xlink:href="#linear-gradient-7"/></defs><g class="cls-2"><g id="Layer_2" data-name="Layer 2"><g id="Ñëîé_1" data-name="Ñëîé 1"><path class="cls-3" d="M282.25,193.23h-1.49V126.56h1.49a2.05,2.05,0,0,1,2.06,2.05v62.57A2.05,2.05,0,0,1,282.25,193.23Z"/><path class="cls-4" d="M2.05,153.58h1.5V112.23H2.05a2.05,2.05,0,0,0-2,2v37.25A2,2,0,0,0,2.05,153.58Z"/><path class="cls-5" d="M2.05,91.56h1.5v-24H2.05a2.05,2.05,0,0,0-2,2V89.51A2.05,2.05,0,0,0,2.05,91.56Z"/><path class="cls-6" d="M2.05,202h1.5V160.65H2.05a2.05,2.05,0,0,0-2,2V200A2.05,2.05,0,0,0,2.05,202Z"/><rect class="cls-7" x="2.87" width="278.57" height="559.66" rx="41.27"/><rect class="cls-8" x="12.18" y="9.11" width="259.96" height="541.43" rx="31.52"/><g class="cls-9"><rect class="cls-10" x="11.04" y="4.09" width="262.47" height="458.55"/><image width="360" height="640" transform="translate(5.8 40.45) scale(0.76)" xlink:href="../flow3/1.0.Landing%20page.png"/><rect class="cls-11" x="11.04" y="507.57" width="262.47" height="94.98"/></g><g class="cls-12"><path class="cls-13" d="M272.06,522.49l-.2-5.42c-.12-3.54-.37-8.72-.52-15.32-.32-13.2-1-32.05-1.4-54.68-.23-11.31-.48-23.56-.64-36.52s-.33-26.63-.5-40.77-.3-28.75-.32-43.6-.09-29.93-.13-45,.09-30.17.13-45,.22-29.46.31-43.6.31-27.81.5-40.77.4-25.22.64-36.53.48-21.68.75-30.87.47-17.2.65-23.8.41-11.79.52-15.32l.21-5.42.2,5.42c.11,3.53.36,8.72.52,15.32s.4,14.61.66,23.8.55,19.56.74,30.87.48,23.57.64,36.53.41,26.63.5,40.77.31,28.75.31,43.6.09,29.93.13,45-.09,30.16-.13,45-.22,29.46-.32,43.6-.34,27.81-.5,40.77-.41,25.21-.64,36.52c-.41,22.63-1.08,41.48-1.4,54.68-.15,6.6-.4,11.78-.51,15.32Z"/></g><g class="cls-12"><path class="cls-14" d="M12.17,522.49l-.2-5.42c-.12-3.54-.37-8.72-.52-15.32-.32-13.2-1-32.05-1.4-54.68-.23-11.31-.48-23.56-.64-36.52s-.33-26.63-.5-40.77-.3-28.75-.32-43.6-.08-29.93-.13-45,.09-30.17.13-45,.22-29.46.31-43.6.31-27.81.5-40.77.4-25.22.64-36.53.48-21.68.75-30.87.47-17.2.65-23.8.41-11.79.52-15.32l.21-5.42.2,5.42c.11,3.53.36,8.72.52,15.32s.4,14.61.66,23.8.55,19.56.74,30.87.48,23.57.64,36.53.41,26.63.5,40.77.31,28.75.31,43.6.09,29.93.13,45-.09,30.16-.13,45-.22,29.46-.32,43.6-.34,27.81-.5,40.77-.4,25.21-.64,36.52c-.41,22.63-1.08,41.48-1.4,54.68-.15,6.6-.4,11.78-.51,15.32Z"/></g><g class="cls-12"><path class="cls-15" d="M43.24,9.11s3-.16,8.34-.36,12.88-.49,22-.7,19.7-.43,31.06-.56l17.52-.17,18.09-.06,18.09.06,17.53.16c11.36.13,22,.33,31.06.57s16.67.54,22,.7,8.34.36,8.34.36-3,.17-8.34.36-12.88.5-22,.71-19.7.43-31.06.56l-17.53.16L140.22,11l-18.09-.06-17.52-.16c-11.36-.13-22-.33-31.06-.57s-16.67-.54-22-.7S43.24,9.11,43.24,9.11Z"/></g><g class="cls-12"><path class="cls-16" d="M43.24,550.47s3-.17,8.34-.36,12.88-.49,22-.7,19.7-.44,31.06-.57l17.52-.16,18.09-.07,18.09.07,17.53.15c11.36.13,22,.33,31.06.57s16.67.55,22,.71,8.34.36,8.34.36-3,.16-8.34.36-12.88.49-22,.7-19.7.44-31.06.57l-17.53.16-18.09.06-18.09-.07-17.52-.16c-11.36-.13-22-.33-31.06-.56s-16.67-.55-22-.7S43.24,550.47,43.24,550.47Z"/></g></g></g></g></svg>