<svg xmlns="http://www.w3.org/2000/svg" xmlns:xlink="http://www.w3.org/1999/xlink" viewBox="0 0 702.03 570.25"><defs><style>.cls-1{isolation:isolate;}.cls-2{fill:#3dbbc2;}.cls-3{fill:#b4dbb3;}.cls-4{fill:#f9cc3d;}.cls-5{fill:#58479c;}.cls-6{fill:#0b826f;}.cls-7{fill:#55bda0;}.cls-8{fill:#0e8370;}.cls-9{fill:#58c4c9;}.cls-10{fill:#1fb14f;}.cls-11{fill:#fff;}.cls-12{fill:#ecaa20;}.cls-13{fill:#5c62ab;}.cls-14{fill:#221f1f;}.cls-15{fill:#c3e4f5;opacity:0.5;}.cls-16{opacity:0.43;fill:url(#radial-gradient);}.cls-16,.cls-39,.cls-40{mix-blend-mode:multiply;}.cls-17{fill:#f5948b;}.cls-18{fill:url(#linear-gradient);}.cls-19{fill:url(#linear-gradient-2);}.cls-20{fill:#181818;}.cls-21{fill:#e1b684;}.cls-22{fill:#603a18;}.cls-23{fill:#7f8587;}.cls-24{fill:gray;}.cls-25{fill:#919c9c;}.cls-26{fill:#8b6439;}.cls-27{fill:#e40d76;}.cls-28{fill:#f8b9ae;}.cls-29{fill:#29559a;}.cls-30{fill:#eec5ab;}.cls-31{fill:#eda884;}.cls-32{fill:#5a7770;}.cls-33{fill:#f1cbb0;}.cls-34{fill:url(#linear-gradient-3);}.cls-35{fill:url(#linear-gradient-4);}.cls-36{fill:url(#linear-gradient-5);}.cls-37{fill:url(#linear-gradient-6);}.cls-38{fill:#1c262d;}.cls-39,.cls-40{fill:#cdcfd1;}.cls-39{opacity:0.55;}.cls-40{opacity:0.4;}.cls-41{fill:url(#linear-gradient-7);}.cls-42{fill:url(#linear-gradient-8);}.cls-43{fill:#e79c74;}.cls-44{fill:#282930;}.cls-45{fill:#158d92;}.cls-46{fill:#dadcdd;}.cls-47{fill:#a1d9db;}.cls-48{fill:#46bfbb;}</style><radialGradient id="radial-gradient" cx="1000.74" cy="5615.65" r="145.18" gradientTransform="translate(-1762.24 -914.65) scale(2.13 0.26)" gradientUnits="userSpaceOnUse"><stop offset="0" stop-color="#aeb0b3"/><stop offset="0.54" stop-color="#fff"/></radialGradient><linearGradient id="linear-gradient" x1="377.33" y1="-5.55" x2="335.79" y2="34.65" gradientUnits="userSpaceOnUse"><stop offset="0" stop-color="#0b564c"/><stop offset="1" stop-color="#00aa78"/></linearGradient><linearGradient id="linear-gradient-2" x1="418.99" y1="85.78" x2="382.68" y2="-8.01" gradientUnits="userSpaceOnUse"><stop offset="0" stop-color="#90ca77"/><stop offset="1" stop-color="#00aa78"/></linearGradient><linearGradient id="linear-gradient-3" x1="315.43" y1="67.07" x2="269.58" y2="139" xlink:href="#linear-gradient-2"/><linearGradient id="linear-gradient-4" x1="425.73" y1="73.47" x2="456.88" y2="120.2" xlink:href="#linear-gradient-2"/><linearGradient id="linear-gradient-5" x1="454.05" y1="155.76" x2="370.48" y2="154.87" xlink:href="#linear-gradient"/><linearGradient id="linear-gradient-6" x1="241.42" y1="415.98" x2="486.54" y2="415.98" gradientUnits="userSpaceOnUse"><stop offset="0.04" stop-color="#faab18"/><stop offset="1" stop-color="#ffcb04"/></linearGradient><linearGradient id="linear-gradient-7" x1="226.96" y1="280.54" x2="503.09" y2="280.54" xlink:href="#linear-gradient-6"/><linearGradient id="linear-gradient-8" x1="265.16" y1="155.54" x2="337.49" y2="163.84" xlink:href="#linear-gradient"/></defs><g class="cls-1"><g id="Layer_2" data-name="Layer 2"><g id="Ñëîé_1" data-name="Ñëîé 1"><path class="cls-2" d="M227,503a41.18,41.18,0,0,1-32.77-21.95c-1.82-3.57-3.11-7.54-2.77-11.52s2.59-8,6.27-9.57c2.79-1.21,6-.93,9-1.1s6.41-1,8-3.62c1.39-2.25,1-5.16.22-7.68-1.84-5.73-5.61-10.6-9.17-15.46s-7.06-10-8.19-15.92.71-12.79,5.85-15.93c4.08-2.49,9.19-2.16,14-2.49s10.17-1.92,12.06-6.31c1.35-3.15.42-6.88-1.43-9.75s-4.54-5.09-7-7.41c-6.1-5.68-11.45-12.37-14.38-20.17s-3.25-16.8.37-24.31,11.5-13.11,19.83-12.84c7.95.25,14.88,5.46,20.36,11.23,5.12,5.38,9.61,11.7,11.14,19,1.93,9.18-1.08,18.67-5,27.2l-.2.45a18.74,18.74,0,0,0,9.52,24.88,165.48,165.48,0,0,1,16,8,22.58,22.58,0,0,1,.67,38.79c-4.58,2.83-10,3.94-14.87,6.23s-9.53,6.49-9.75,11.87c-.36,8.9,11.12,14.59,11.56,23.49.24,4.91-3.17,9.43-7.46,11.83s-9.31,3-14.21,3.35c-8,.52-6.73,1.49-14.69.56Z"/><rect class="cls-3" x="236.39" y="343.07" width="1.19" height="150.24" transform="translate(-6.85 3.96) rotate(-0.94)"/><rect class="cls-3" x="233.95" y="355.46" width="12.54" height="1.19" transform="translate(-185.31 297.76) rotate(-48.19)"/><rect class="cls-3" x="230.53" y="402.67" width="1.19" height="15.33" transform="translate(-226.9 300.76) rotate(-47.16)"/><rect class="cls-3" x="235.54" y="456.78" width="16.35" height="1.19" transform="translate(-248.72 295.82) rotate(-43.79)"/><path class="cls-4" d="M94.62,483.52c-6.14-6.92-7-22.4-6.1-31.6s4-18,6-27.06,2.84-18.72-.58-27.31a96.1,96.1,0,0,0-5-9.6,74.14,74.14,0,0,1-7.82-23c-.9-5.49-1.09-11.49,1.87-16.21,1.78-2.84,4.54-4.94,6.48-7.67,4.38-6.13,4-14.45,2.29-21.77C90.52,314,89.12,307.11,93.64,304c2.69-1.84,6.32-1.31,9.47-.45,5.59,1.53,11.15,3.95,15.07,8.23,6.64,7.26,7.17,18,7.79,27.83,1.66,26.24,6.45,52.19,8.95,78.36s2.64,53-4.83,78.25C130.09,496.23,102.84,492.79,94.62,483.52Z"/><path class="cls-5" d="M158.06,502.64c21.53,5.78,45.27,12.67,67.29,16.21-8.37-22.44-11.93-49.61-6.62-73.05,2.33-10.25,6-20.45,5.48-30.95-.6-12.38-6.88-23.66-9.89-35.67-1.95-7.81-2.51-15.93-4.27-23.79-5.21-23.24-20.46-42.64-35.27-61.15-2-2.52-4.64-5.3-7.83-4.85s-5.11,4.25-4.95,7.55,1.74,6.33,2.75,9.47c4.64,14.37-2.43,29.62-5.12,44.52A76.79,76.79,0,0,0,161.48,386c2.6,8.88,6.82,17.33,8.11,26.51,1.08,7.67.06,15.48-1.06,23.16C165.11,459,158.06,502.64,158.06,502.64Z"/><path class="cls-6" d="M135,497.07l27.7,6.31A11.34,11.34,0,0,0,176.46,494c2.91-19.77,7.64-58.5,3.09-75.59a10.23,10.23,0,0,0-.56-1.61c-1.85-4.29-12.14-29.11-9.91-48.75a12.36,12.36,0,0,0,0-2.58,42.48,42.48,0,0,0-16.49-28.57,8.93,8.93,0,0,0-.87-.6c-1.05-.6-5.76-5-.85-34.92a25.77,25.77,0,0,0-2.51-16.1c-3.07-5.89-8.12-10-15.09,2.11a11.57,11.57,0,0,0-.84,1.78C131,293,125,309.4,120.85,317.89c-4.7,9.69-9.54,29.41-4.76,38.32s-7,34.69-7,34.69-23.3,49.4,19.56,102.22A11.33,11.33,0,0,0,135,497.07Z"/><rect class="cls-7" x="143.84" y="350.36" width="2.24" height="152.4" transform="translate(-62.06 26.42) rotate(-8.59)"/><rect class="cls-7" x="133.74" y="377.13" width="26.69" height="2.24" transform="translate(-242.22 263.59) rotate(-52.34)"/><rect class="cls-7" x="135.27" y="410.92" width="2.24" height="16.04" transform="translate(-303.92 434.3) rotate(-73.96)"/><rect class="cls-7" x="150.14" y="460.8" width="12.89" height="2.24" transform="matrix(0.86, -0.52, 0.52, 0.86, -216.72, 148.02)"/><path class="cls-8" d="M561.73,396.38l45.16,9.92s21.47-84.84,8.39-129.18C615.28,277.12,580.17,306.49,561.73,396.38Z"/><rect class="cls-9" x="548.69" y="351.56" width="91.47" height="0.58" transform="translate(120.3 854.19) rotate(-77.28)"/><rect class="cls-9" x="592.76" y="332.66" width="0.58" height="11.17" transform="matrix(0.86, -0.51, 0.51, 0.86, -89.59, 349.19)"/><rect class="cls-9" x="588.12" y="369.22" width="11.3" height="0.58" transform="translate(-88.24 524.32) rotate(-44.68)"/><path class="cls-8" d="M572.29,484.22s36.78,1,40-1c0,0,63.8-16.4,89.74-138.22C702,345,605.64,376.88,572.29,484.22Z"/><rect class="cls-9" x="563.07" y="424.87" width="134.66" height="0.58" transform="translate(-106.31 613.35) rotate(-48.33)"/><rect class="cls-9" x="640.37" y="399.5" width="14.41" height="0.58" transform="translate(215.42 1026.23) rotate(-87.09)"/><rect class="cls-8" x="612.63" y="442.23" width="13.27" height="0.58" transform="translate(-125.88 287.36) rotate(-23.79)"/><path class="cls-10" d="M552.35,463.32l46.27,15.28S651,378,638,342.86C638,342.86,584.64,373.59,552.35,463.32Z"/><rect class="cls-8" x="545.38" y="422.29" width="107.81" height="0.58" transform="translate(-41.32 779.43) rotate(-64.31)"/><rect class="cls-8" x="601.01" y="403.79" width="0.58" height="9.33" transform="translate(-123.91 358.84) rotate(-30.27)"/><rect class="cls-8" x="588.07" y="442.56" width="9.5" height="0.58" transform="translate(-96.11 172.8) rotate(-15.36)"/><path class="cls-5" d="M589.38,459.85l.43-.19.48-.23,1-.49c.66-.32,1.32-.69,2-1.05q2-1.09,3.91-2.31c.64-.41,1.29-.8,1.93-1.23l1.9-1.27c1.25-.89,2.51-1.75,3.73-2.69,2.47-1.82,4.83-3.79,7.18-5.79,1.14-1,2.3-2.05,3.43-3.1s2.25-2.12,3.34-3.22A148.26,148.26,0,0,0,631,424.35,172.93,172.93,0,0,0,641.55,409l2.38-4c.41-.67.77-1.36,1.14-2l1.12-2.06,1.11-2.07c.38-.68.7-1.39,1.05-2.09l2.08-4.21c.66-1.42,1.29-2.85,1.93-4.28l1-2.14c.32-.72.59-1.45.89-2.17l1.76-4.36c.59-1.46,1.08-2.95,1.63-4.42a232,232,0,0,0,9.76-36.42,231.55,231.55,0,0,1-8,37c-.48,1.51-.91,3-1.42,4.54l-1.57,4.49c-.26.74-.51,1.5-.79,2.24l-.87,2.21c-.58,1.48-1.14,3-1.74,4.43l-1.9,4.37c-.32.73-.61,1.47-1,2.18l-1,2.15-1,2.16c-.35.71-.69,1.43-1.07,2.13l-2.22,4.23a179.43,179.43,0,0,1-10.07,16.27,152.71,152.71,0,0,1-12,15c-1.07,1.2-2.2,2.34-3.3,3.52s-2.28,2.27-3.42,3.4c-2.35,2.21-4.73,4.4-7.23,6.44-1.23,1.05-2.53,2-3.8,3L603,460c-.65.48-1.32.94-2,1.41-1.33.94-2.7,1.83-4.1,2.7-.71.43-1.41.87-2.14,1.28l-1.1.61c-.19.1-.37.21-.58.31l-.63.32Z"/><ellipse class="cls-5" cx="667.82" cy="326.97" rx="19.03" ry="6.65" transform="translate(278.06 960.2) rotate(-84.47)"/><ellipse class="cls-5" cx="678.57" cy="360.03" rx="20.21" ry="7.06" transform="translate(-87.35 301.4) rotate(-23.57)"/><ellipse class="cls-5" cx="649.69" cy="353.62" rx="7.06" ry="20.21" transform="translate(-88.71 397.3) rotate(-31.94)"/><ellipse class="cls-5" cx="666.8" cy="393.85" rx="20.21" ry="7.06" transform="translate(-97.86 271.27) rotate(-21.46)"/><ellipse class="cls-5" cx="640.38" cy="385.3" rx="7.06" ry="20.21" transform="translate(-88.09 218.34) rotate(-18.13)"/><ellipse class="cls-5" cx="644.71" cy="426.45" rx="20.21" ry="7.06" transform="translate(-111.33 265.45) rotate(-21.46)"/><ellipse class="cls-5" cx="618.28" cy="417.91" rx="7.06" ry="20.21" transform="translate(-89.33 180.83) rotate(-15.53)"/><ellipse class="cls-5" cx="621.31" cy="454.49" rx="20.21" ry="7.06" transform="translate(-48.94 75.87) rotate(-6.72)"/><ellipse class="cls-5" cx="599.48" cy="438.65" rx="7.06" ry="20.21" transform="matrix(1, -0.01, 0.01, 1, -6.03, 8.37)"/><path class="cls-11" d="M94.82,458.34l0-.47,0-.53c0-.36,0-.73,0-1.1,0-.73,0-1.49,0-2.24,0-1.5-.06-3-.16-4.54,0-.76-.08-1.52-.16-2.28l-.2-2.28c-.18-1.52-.34-3-.58-4.56-.41-3-1-6.06-1.64-9.08-.36-1.5-.7-3-1.08-4.5s-.78-3-1.23-4.46a145.78,145.78,0,0,0-6.33-17.47,172.14,172.14,0,0,0-8.42-16.66l-2.4-4c-.39-.67-.82-1.32-1.25-2l-1.27-2-1.28-2c-.42-.66-.89-1.28-1.33-1.93l-2.7-3.83C64,371.22,63,370,62.1,368.73l-1.42-1.87c-.48-.62-1-1.21-1.49-1.82l-3-3.64c-1-1.2-2.07-2.35-3.1-3.54a230.75,230.75,0,0,0-27.29-26,231.51,231.51,0,0,1,28.64,24.76c1.1,1.14,2.23,2.24,3.3,3.41L61,363.55c.53.59,1.08,1.16,1.59,1.77l1.53,1.82c1,1.22,2.05,2.42,3.06,3.65l2.92,3.76c.48.63,1,1.25,1.45,1.89l1.4,1.94,1.39,1.93c.47.65.94,1.29,1.37,2l2.65,4a175.57,175.57,0,0,1,9.45,16.64,151.36,151.36,0,0,1,7.43,17.72c.54,1.51,1,3.06,1.5,4.58s.9,3.09,1.35,4.64c.82,3.12,1.6,6.25,2.19,9.43.33,1.58.57,3.19.84,4.79l.34,2.41c.12.8.19,1.62.29,2.43.18,1.62.31,3.25.41,4.89,0,.83.08,1.65.09,2.49,0,.41,0,.83,0,1.26,0,.22,0,.42,0,.65s0,.42,0,.72Z"/><ellipse class="cls-11" cx="15.75" cy="325.83" rx="6.65" ry="19.03" transform="matrix(0.56, -0.83, 0.83, 0.56, -262.75, 155.97)"/><ellipse class="cls-11" cx="49.92" cy="332.23" rx="20.21" ry="7.06" transform="translate(-285.42 352.71) rotate(-84.95)"/><ellipse class="cls-11" cx="30.46" cy="354.51" rx="20.21" ry="7.06" transform="translate(-20.5 2.36) rotate(-3.32)"/><ellipse class="cls-11" cx="73.97" cy="358.76" rx="20.21" ry="7.06" transform="translate(-291.21 387.43) rotate(-82.84)"/><ellipse class="cls-11" cx="53.81" cy="377.86" rx="7.06" ry="20.21" transform="translate(-327.53 361.93) rotate(-79.5)"/><ellipse class="cls-11" cx="92.01" cy="393.77" rx="20.21" ry="7.06" transform="translate(-310.17 435.98) rotate(-82.84)"/><ellipse class="cls-11" cx="71.85" cy="412.87" rx="7.06" ry="20.21" transform="translate(-346.57 389.35) rotate(-76.91)"/><ellipse class="cls-11" cx="105.41" cy="427.74" rx="20.21" ry="7.06" transform="translate(-330.79 366.02) rotate(-68.1)"/><ellipse class="cls-11" cx="81.05" cy="439.32" rx="7.06" ry="20.21" transform="translate(-345.3 305.93) rotate(-62.17)"/><path class="cls-12" d="M270.53,265.82c.48,0,4.37-.14,10.59-.22Z"/><path class="cls-5" d="M499.62,475.32a41.19,41.19,0,0,1-32.78-21.95c-1.81-3.57-3.1-7.54-2.76-11.53s2.59-8,6.26-9.56c2.8-1.21,6-.93,9-1.1s6.41-1,8-3.62c1.39-2.25,1-5.16.21-7.68-1.83-5.73-5.6-10.61-9.16-15.46s-7.06-10-8.19-15.92.71-12.79,5.85-15.93c4.08-2.49,9.18-2.16,13.95-2.49s10.17-1.93,12.06-6.32c1.35-3.14.42-6.87-1.43-9.74s-4.54-5.09-7-7.42c-6.1-5.67-11.45-12.36-14.39-20.16s-3.24-16.8.37-24.31,11.51-13.11,19.83-12.84c8,.25,14.89,5.46,20.37,11.23,5.12,5.38,9.61,11.7,11.14,19,1.93,9.19-1.08,18.68-5,27.21l-.21.45A18.76,18.76,0,0,0,535.26,372a164.45,164.45,0,0,1,16,8,22.58,22.58,0,0,1,.67,38.79c-4.58,2.83-10,3.94-14.88,6.23s-9.52,6.48-9.74,11.86c-.36,8.91,11.12,14.6,11.56,23.5.24,4.9-3.17,9.43-7.46,11.83s-9.31,3-14.21,3.35c-8,.52-6.73,1.49-14.69.56Z"/><path class="cls-13" d="M510.88,465.8a.2.2,0,0,1-.2-.2L508.2,315.39a.2.2,0,0,1,.2-.21h0a.2.2,0,0,1,.2.2l2.47,150.22a.19.19,0,0,1-.2.2Z"/><path class="cls-13" d="M508.7,333.23a.24.24,0,0,1-.13-.05.21.21,0,0,1,0-.29l8.36-9.35a.2.2,0,0,1,.29,0,.19.19,0,0,1,0,.28l-8.35,9.35A.2.2,0,0,1,508.7,333.23Z"/><path class="cls-13" d="M509.4,388a.19.19,0,0,1-.14-.05L498,377.57a.21.21,0,1,1,.28-.3l11.24,10.42a.22.22,0,0,1,0,.29A.22.22,0,0,1,509.4,388Z"/><path class="cls-13" d="M510.47,435.54a.17.17,0,0,1-.14-.07.19.19,0,0,1,0-.28l11.8-11.32a.21.21,0,0,1,.28.3l-11.8,11.31A.2.2,0,0,1,510.47,435.54Z"/><path class="cls-14" d="M257.65,235.75v-.08l0-.06h0l0,.14h-.06Zm0-.08h0Z"/><path class="cls-15" d="M645.6,91.3c0-.47,0-.94-.08-1.41-1.1-10.89-11.4-18.76-23-17.58a22.29,22.29,0,0,0-4.3.86C613.39,57.08,598,46.12,581,47.84a35.21,35.21,0,0,0-30.63,27.59c-.53,0-1.07,0-1.6.09a20.33,20.33,0,1,0,14.4,36.38A34.54,34.54,0,0,0,611,107.41a22.24,22.24,0,0,0,24.6,1.32,11.71,11.71,0,0,0,10.71,4.7,11.07,11.07,0,0,0-.71-22.13Z"/><path class="cls-4" d="M556.24,468.94c-.07-.27-.1-.45-.14-.66l-.11-.6c-.08-.39-.14-.78-.2-1.16-.13-.77-.22-1.53-.33-2.29-.18-1.52-.33-3-.43-4.55-.22-3-.28-6-.23-9s.22-6,.45-9c.16-1.48.29-3,.48-4.45s.37-3,.62-4.43a140.82,140.82,0,0,1,3.88-17.41,161.13,161.13,0,0,1,5.91-16.73l1.76-4.07c.29-.68.61-1.34.93-2l1-2,1-2c.32-.67.68-1.31,1-2l2-3.91c.72-1.29,1.46-2.56,2.19-3.84l1.1-1.91c.37-.63.77-1.25,1.16-1.87l2.33-3.74c.79-1.24,1.64-2.43,2.45-3.65a214.73,214.73,0,0,1,22.08-27.26,213.48,213.48,0,0,0-20.5,28.27c-.74,1.25-1.52,2.47-2.23,3.74l-2.1,3.81c-.35.64-.72,1.26-1,1.91l-1,1.94c-.65,1.29-1.31,2.58-2,3.88l-1.81,3.95c-.3.66-.62,1.31-.89,2l-.83,2-.83,2c-.28.67-.56,1.33-.81,2L569.63,400a160.84,160.84,0,0,0-4.87,16.56,136.22,136.22,0,0,0-2.83,16.95c-.16,1.42-.25,2.85-.37,4.27s-.15,2.85-.23,4.27c-.07,2.85-.1,5.69,0,8.52,0,1.42.15,2.83.24,4.24s.25,2.81.43,4.21.38,2.77.62,4.14c.13.68.25,1.36.4,2,.07.34.14.67.22,1l.11.48.11.4Z"/><ellipse class="cls-4" cx="613.29" cy="333.29" rx="17.63" ry="6.16" transform="translate(-57.94 524.75) rotate(-44.44)"/><path class="cls-4" d="M589.53,343a32.6,32.6,0,0,1-1.35,19.79,30,30,0,0,1-9.91-36.11A32.59,32.59,0,0,1,589.53,343Z"/><ellipse class="cls-4" cx="604.64" cy="361.86" rx="18.72" ry="6.54" transform="translate(-39.45 76.07) rotate(-6.97)"/><ellipse class="cls-4" cx="565.69" cy="372.93" rx="6.54" ry="18.72" transform="translate(-85.81 186.85) rotate(-17.45)"/><ellipse class="cls-4" cx="587.23" cy="387" rx="18.72" ry="6.54" transform="translate(-99.13 233.64) rotate(-20.79)"/><path class="cls-4" d="M561.29,405.86a32.59,32.59,0,0,1-.62,19.82A30,30,0,0,1,549.44,390,32.51,32.51,0,0,1,561.29,405.86Z"/><ellipse class="cls-4" cx="576.59" cy="421.89" rx="18.72" ry="6.54" transform="translate(-120.09 263.49) rotate(-23.38)"/><path class="cls-4" d="M554,437.51a32.59,32.59,0,0,1,4.44,19.33,30.07,30.07,0,0,1-20-31.68A32.58,32.58,0,0,1,554,437.51Z"/><ellipse class="cls-4" cx="572.58" cy="447.52" rx="18.72" ry="6.54" transform="translate(-154.14 448.91) rotate(-38.12)"/><ellipse class="cls-16" cx="367.24" cy="543.73" rx="217.26" ry="26.51"/><path class="cls-17" d="M429.83,52.39s-2.6,2.67-4.55,1.25S416.71,43,416.53,41.81c-.15-1,3.29,1.91,4.61,3a.1.1,0,0,0,.15-.13c-1-1.62-3.7-6.2-3.06-6.88s3.89,3.45,5.13,5.08c0,0,.09.06.13,0a.1.1,0,0,0,.05-.13c-.78-1.9-2.71-6.87-2-7.63s3.41,4.29,4.21,5.87a.11.11,0,0,0,.12.06.14.14,0,0,0,.07-.11c-.11-1.58-.38-6.31.38-6.34s2.42,7.26,3,9.87a.42.42,0,0,0,.33.32.4.4,0,0,0,.42-.16c.84-1.12,2.42-3.06,3-2.64C433.84,42.65,429.62,49.68,429.83,52.39Z"/><path class="cls-17" d="M457.48,63.5c0,.11-.09.23-.14.34-2.23,4.94-5.43,10.54-9.31,14.39-7.54,7.47-17.23,5.52-20.61-11.94-.58-2.63-1-5.25-1.34-7.87-.7-5.22-1-10.43-1.21-15.62a1.42,1.42,0,0,1,2.82-.35v0c1,5,2.05,10.07,3.37,15,.68,2.44,1.38,4.86,2.2,7.19s3.56,9.06,5.78,9.74c.07,0,.14.08.19,0s.06,0,.08,0,.07-.08.11-.07.26-.12.53-.33a8.9,8.9,0,0,0,1.77-1.72,30.06,30.06,0,0,0,3.54-5.64c1.83-3.55,2.89-6.1,2.89-6.1C450.4,54.36,459.74,57.32,457.48,63.5Z"/><path class="cls-18" d="M320.23,10.43c-4.64,7.14-16.4,26.16-16.4,26.16a9.19,9.19,0,0,0,2.73,12.55l27.9,17.77a8.77,8.77,0,0,0,12.22-3l17.79-29.64c1.55-2.61,3.38-3,4.83-1.39L352.15.09,342,0c-7.33-.06-15.73,1.14-21.75,10.43Z"/><path class="cls-19" d="M368.33,62.24l13.91,4.48,18,5.79L414.11,77a8.74,8.74,0,0,0,11.21-6.69l3.44-14.84c1.21-5.27,3.2-13.89,4.43-19.17l3.43-14.83c1.23-5.27-2-7.06-7.16-4l-8.84,5.28c-3.13-5.79-6.26-11.55-7.47-13.66C410.4,4.3,405,.58,394.37.49L352.15.09,369.3,32.84a6.21,6.21,0,0,1,1.07,1.64c.81,1.8,3.92,8,7,14.1l-8.66,5.17c-5.16,3.08-5.33,6.9-.39,8.49Z"/><rect class="cls-20" x="308.45" y="332.12" width="324.64" height="2.6" transform="translate(64.54 743.02) rotate(-80.55)"/><rect class="cls-20" x="253.36" y="332.59" width="324.64" height="2.6" transform="translate(18.05 689.07) rotate(-80.54)"/><rect class="cls-20" x="435.59" y="212.79" width="55.08" height="2.6" transform="translate(-1.79 3.92) rotate(-0.48)"/><rect class="cls-20" x="428.79" y="253.64" width="55.08" height="2.6" transform="translate(-2.14 3.87) rotate(-0.48)"/><rect class="cls-20" x="421.99" y="294.49" width="55.08" height="2.6" transform="translate(-2.48 3.81) rotate(-0.48)"/><rect class="cls-20" x="415.18" y="335.34" width="55.08" height="2.6" transform="translate(-2.83 3.76) rotate(-0.48)"/><rect class="cls-20" x="408.38" y="376.19" width="55.08" height="2.6" transform="translate(-3.18 3.7) rotate(-0.48)"/><rect class="cls-20" x="401.58" y="417.03" width="55.08" height="2.6" transform="translate(-3.52 3.64) rotate(-0.48)"/><rect class="cls-20" x="394.78" y="457.88" width="55.08" height="2.6" transform="translate(-3.87 3.59) rotate(-0.49)"/><path class="cls-21" d="M288.56,56c2.9-1.82,6.61-2.73,9.34-4.67.69-.49,4.68-1.23,5.29-1.82s.23-2.09-.7-2.54a4.88,4.88,0,0,0-3.05-.08c.74-1.17,2.25-1.5,3.59-1.82s2.85-.94,3.23-2.26a3,3,0,0,0-.91-2.79c-1.77-1.81-4.75-1.92-7.06-.91A16.8,16.8,0,0,0,292.56,44a25.21,25.21,0,0,1-5.38,5.29Z"/><rect x="463.99" y="173.08" width="2.6" height="323.5" transform="translate(-42.8 69.4) rotate(-8.16)"/><rect x="519.12" y="171.66" width="2.6" height="325.36" transform="translate(-41.86 76.53) rotate(-8.09)"/><rect x="474.39" y="187.96" width="2.6" height="55.07" transform="matrix(0.01, -1, 1, 0.01, 256.18, 689.35)"/><rect x="480.24" y="228.81" width="2.6" height="55.07" transform="translate(221.14 735.71) rotate(-89.52)"/><rect x="486.1" y="269.66" width="2.6" height="55.07" transform="translate(186.1 782.07) rotate(-89.52)"/><rect x="491.95" y="310.51" width="2.6" height="55.07" transform="translate(151.05 828.43) rotate(-89.52)"/><rect x="497.81" y="351.36" width="2.6" height="55.07" transform="translate(116.01 874.78) rotate(-89.52)"/><rect x="503.66" y="392.21" width="2.6" height="55.07" transform="translate(80.97 921.14) rotate(-89.52)"/><rect x="509.52" y="433.05" width="2.6" height="55.07" transform="translate(45.93 967.5) rotate(-89.52)"/><path class="cls-17" d="M463.27,222s.94,5.69,1.13,8.6,1.22,14.68-2.91,16.43a14.58,14.58,0,0,0,9.08.23l-.48-2.69,0-13.83Z"/><path class="cls-22" d="M470.57,247.28s-3.46,1.52-9.08-.23a66,66,0,0,1-6.87,2.27c-4.48,1.28-5.69,2.27-5.8,3.24s.59,1.06.59,1.06a31.72,31.72,0,0,0,3.21.23l12.54-.16,3.75-.1s2.66.15,2.37-2.31Z"/><path class="cls-23" d="M452.87,160.72l6.3,43.42s4,29.35,5.11,29.35h7.13l.34-37.74s-.73-17.53.57-31.33,6.93-46.74,3-52.83-7.05-10.29-15.84-8c0,0-10.52,3.29-9.47,23.88S452.87,160.72,452.87,160.72Z"/><path class="cls-24" d="M475.79,133.57C473.6,155.85,467,190.14,461.45,190c-5.54.19-8.22-31.08-10.88-55-2.47-24,2.78-29.45,11-32.24C468.05,102.37,480,105.29,475.79,133.57Z"/><path class="cls-17" d="M479.52,222s.94,5.69,1.12,8.6,1.23,14.68-2.9,16.43a14.54,14.54,0,0,0,9.07.23l-.48-2.69,0-13.83Z"/><path class="cls-25" d="M469.15,160.72l6.3,43.42s4.06,29.76,5.17,29.76a4.42,4.42,0,0,0,1.89-.41h5.18l.34-37.74s-.72-13.88-.34-27.74c.57-20.45,6.14-49.76,2.22-55.86s-5.35-10.85-14.14-8.57c0,0-10.52,3.29-9.47,23.88S469.15,160.72,469.15,160.72Z"/><path class="cls-25" d="M491.33,133.57c-2.19,22.28-8.78,56.57-14.34,56.39-5.55.19-8.23-31.08-10.88-55-2.47-24,2.78-29.45,11-32.24C483.59,102.37,495.53,105.29,491.33,133.57Z"/><path class="cls-26" d="M486.81,247.28s-3.46,1.52-9.07-.23a66,66,0,0,1-6.87,2.27c-4.49,1.28-5.69,2.27-5.81,3.24s.59,1.06.59,1.06a32,32,0,0,0,3.21.23l12.54-.16,3.75-.1s2.67.15,2.38-2.31Z"/><path class="cls-27" d="M459.12,48.3s-6.6,1.34-9.24,6.46a136.59,136.59,0,0,1-7,12.14c-1.25,1.78,9.69,5.9,9.69,5.9Z"/><path class="cls-27" d="M465.8,47.19s-10-.61-11.94,6.4c0,0-.43.43-1.28,12,0,0-4.73,47.18-4.73,51.72s43.63,13,47.6,5.1-4-52.12-4-52.12l3.41-15.79s.86-2.14-2.13-3.84-8.54-2.56-11.1-3.42Z"/><path class="cls-28" d="M478.6,36.25c0,3.68-7.28,5.91-11.37,5.91-3.53,0-6.36-.46-7.27-7.24,0-4.77,3.57-10.09,8-10.09S488.6,19,478.6,36.25Z"/><rect class="cls-28" x="459.96" y="17.93" width="15.92" height="16.72"/><path class="cls-28" d="M467.09,37.38a29.33,29.33,0,0,0,.21,5.76,4.17,4.17,0,0,1-2.14,4.27c7.69,6,16.65,0,16.65,0-1.28,0-2.56-3-2.56-3V36.31l-1.71-2.14Z"/><circle class="cls-29" cx="461.55" cy="18.75" r="4.55" transform="translate(27.96 178.06) rotate(-22.5)"/><path class="cls-29" d="M486.32,22.61a2.69,2.69,0,0,1-2.72,2.28c-1.26,0-2.05-2.46-2.05-4.1s1-2.95,2.27-2.95S487.23,19,486.32,22.61Z"/><path class="cls-29" d="M457.64,21.5A6.1,6.1,0,0,0,462,23.75s9.54.45,10.45.45a2,2,0,0,1,1.36.46l.06,3.59s1.76.95,2.67-.41,2.73-2.27,4.09-.91.46,6.36-2.72,6.82a3.76,3.76,0,0,0,1.81,3.18s.46,0,.91-1.36,1.37-5,2.28-7.28a9.78,9.78,0,0,0,.45-4.54s2.95-4.32-2.95-5.68-8.19-2.73-8.19-2.73l-9.09,3.18Z"/><ellipse class="cls-29" cx="468.6" cy="15.34" rx="5.68" ry="3.86"/><path class="cls-29" d="M483.82,16.48c0,2.26-2.64,4.09-5.9,4.09S472,18.74,472,16.48s2.64-4.09,5.91-4.09S483.82,14.22,483.82,16.48Z"/><path class="cls-28" d="M492.26,63.28C478.1,81.59,448.58,91,420.24,77c-1.84-.94-1.85-2.63-1.85-4.22h0c0-1.59,2.7-2.4,4.35-1.73,25,10.45,48.51.9,58.57-13.37,1.74-2.43,5.33-3.26,8.68-2.12h0C493.31,56.69,494.74,60.14,492.26,63.28Z"/><path class="cls-27" d="M483.3,72.8l-10.67-8.54s9.82-7.68,12.38-12.37c1.94-3.56,5.09-3.35,8.1-1.28,0,0,5.63,1.68,2.57,9.81A20.41,20.41,0,0,1,483.3,72.8Z"/><path class="cls-30" d="M223.6,253.77l.11,0,2.35-6c.6.28,1.61,2.36,2.6,4.62,1.21,1.57,2.52,3.56,3.09,4.38,1,1.39,2.66,1.75,7.76,3.33s6.34-1.4,5.78-2.65a1.82,1.82,0,0,0-.15-.27,6.06,6.06,0,0,0-1.75-1.49s0,0,0,0c-.86-.55-1.8-1.08-2.41-1.57a2.27,2.27,0,0,1-.27-.27c-1.45-1.67-5-8.29-6-10s-1-6.17-1-6.17l-4.89-3.48s-1.61,3.91-2.18,5.66a29.94,29.94,0,0,1-1.46,3.71h0a0,0,0,0,1,0,0c-.12.25-.25.51-.39.75C223.64,246.47,223.54,251.05,223.6,253.77Z"/><path class="cls-30" d="M264.61,121.86s-3.43,29.72-5.77,37.4c-.27.87-.55,1.78-.83,2.71-.5,1.65,1.37,3.69.87,5.39-1.66,5.65-1.21.57-1.45,3.58-.35,4.42-.79,25-1.39,28.83-7.44,15-22.14,40-22,41.26,0,0-1.44-.5-6.2-3.7,0,0,8-18.51,16.73-41-2.25-10.37-4.74-18.51-5.42-23.52s-5.85-23.52-6.11-25.1a42.84,42.84,0,0,1,7-27C248.25,108.27,264.61,121.86,264.61,121.86Z"/><path class="cls-31" d="M259.6,39c1.15,8.27.64,18-6,18.53-4.55.39-13.74-7.76-14.89-16s3.49-10,9.1-10.82S258.46,30.69,259.6,39Z"/><path class="cls-31" d="M251.25,56.78a20.76,20.76,0,0,0-.11,7.82l-10.08-.15.28-18.78Z"/><path class="cls-32" d="M222.18,253.21l1.42.56.11,0,2.35-6c.6.28,1.61,2.36,2.6,4.62,1.09,2.48,2.15,5.18,2.63,6,.9,1.61,2.06.78,8,1.83,5.49,1,7.22-.39,6.75-1.8a3.69,3.69,0,0,0-.89-1.27,17.7,17.7,0,0,0-1.75-1.49s0,0,0,0a18,18,0,0,1-1.74-1.46,6.85,6.85,0,0,1-.94-.38c-5.63-2.74-9.63-12.43-13-13.72a3.62,3.62,0,0,0-1.08-.25h-.09a1.21,1.21,0,0,0-1.19.67l0,0c-.17.25-.34.49-.52.73C222.55,244.24,222.18,253.21,222.18,253.21Z"/><path class="cls-30" d="M234,241c-1.4-3.14,15.17-17.56,22.29-43.18l-6.78,2.78-17.39,37.49Z"/><path class="cls-33" d="M246.45,124.1c3.12-3.07,7.79-3.87,12.16-4.07,2.57-.12,9.17,1.42,6.84,2.5-4.42,2-3.24,3.9-3.26,5.08-.16,10.19-5.31,16.65-.42,28.25,8,19,9.21,41.43,11.82,62.13,1.11,8.82.83,17.86,2.69,26.56-.5,0-7.09-.21-7.46.37-5.6-15.85-7.1-28.66-11.35-44.77-4.14-12.32-17.31-30.57-19.48-47.53C237.1,145.59,240.74,129.7,246.45,124.1Z"/><path class="cls-33" d="M295,259.93c-.1,2.27-12.42,1.37-14.8.5s-6.33-6.39-8-6.35-1.14,6.66-1.14,6.66l-1.75,0s-2.1-7-2-9.51a24,24,0,0,1,.32-2.71c.46-2.9.93-8.37.93-8.37l6.88.41s2.13,5.89,3.41,6.76,8.45,8,9.93,8.71S295.13,257.66,295,259.93Z"/><path class="cls-5" d="M268.94,133s1.62,10.72,5.09,37.38c-5.51,4.59-24.52,4.39-32.95,4.06-2.56-.1-5.66-1.56-5.71-4.12-.2-11.27-9-18.47-3.56-37.88Z"/><path class="cls-32" d="M295,259.93c-.1,2.27-12.42,1.37-14.8.5s-6.33-6.39-8-6.35-1.13,6.66-1.13,6.66l-1.76,0s-2.09-7.05-2-9.51a24,24,0,0,1,.32-2.71A9.26,9.26,0,0,1,273,249c2.55,1.17,10.74,6.9,15.82,7C290.34,256.68,295.13,257.66,295,259.93Z"/><path class="cls-4" d="M261.79,112.34s1.95,3.24,15.64,17.87c0,0-26.26,13.12-48.12,2.2,0,0,6.7-9.72,8.62-20.53Z"/><path class="cls-4" d="M243.89,63.52c-5-1.53-10.36,2.55-12.14,7.49s-.95,10.39-.1,15.57a158,158,0,0,0,4.12,19.79,19.2,19.2,0,0,1,1.14,5.46c0,2.66-1.21,5.14-2.4,7.51q-2.81,5.58-5.6,11.16c-.32.65-.64,1.44-.25,2.05a2.13,2.13,0,0,0,1.5.72,73.51,73.51,0,0,0,33.41-2.2,4.78,4.78,0,0,0,2.14-1.08,4.65,4.65,0,0,0,1-2.24c1.36-5.76,1.1-7.43-2.71-12-3.64-4.33-5.52-15.08-4.53-21.47a67.77,67.77,0,0,1,2.12-8.24c1.52-5.49,0-9.23-4.08-13.19s-9.65-11-15.27-10Z"/><path class="cls-27" d="M239.87,41.84a14.52,14.52,0,0,0,2.56,15.51,7.51,7.51,0,0,1-2.8-2.39c.23,2.81,3.17,4.42,5.37,6.19a15.83,15.83,0,0,1,5.56,9.18,6.28,6.28,0,0,1-.31,4.11c-.87,1.63-2.73,2.41-4.16,3.57a8.9,8.9,0,0,0-3.2,5.8c-.21,1.84.15,3.7.07,5.54-.26,5.58-6.78,13.65-10.79,10.77,2.77.7,5.32-2.29,5.39-5.14s-1.48-5.46-2.86-8-2.65-5.34-2-8.11c.49-2,2-3.75,2.35-5.81.47-2.5-.73-5-1.81-7.27-2.51-5.4-4.5-11.14-4.87-17.09s.47-12.48,4.14-17.17a32.47,32.47,0,0,1,9.84-8.8c2.22-1.24,7.53-2.37,9.78-.08,2,2-.1,4.33-1.48,6.18C247.29,33.37,242.23,36.61,239.87,41.84Z"/><path class="cls-27" d="M233.51,49.63a16.22,16.22,0,0,0,6.75,6c1.67.77,4,1.22,5.65.15a5.53,5.53,0,0,0,2.67-4.38c0-.13,0-.8,0-1.54a2.67,2.67,0,0,0-1.91-2.62,2.49,2.49,0,0,1-1.16-.76,3.67,3.67,0,0,1-.82-3.73,2.85,2.85,0,0,1,2.88-1.82s5,6.44,6.67-.21c.17-.65.14-1.35.34-2a8.08,8.08,0,0,1,1.58-3.25c.7-.8,1.69-1.55,1.73-2.67.69.14,1.27,2,1.47,2.6.72-.91,1.5-1.77,2.2-2.73,1-1.35.25-3.45.06-3.77-2.91-5.12-10.22-7.43-16-6.85a13.43,13.43,0,0,0-6.75,2.43,15.37,15.37,0,0,0-2.58,2.45,22.25,22.25,0,0,0-5.12,11.91A17.31,17.31,0,0,0,233.51,49.63Z"/><path class="cls-4" d="M257.59,66.83h0c-1.2-2.4-9.43-3.41-7-4.6l40.27-17L294,53.7,264.42,71.61C262,72.81,258.79,69.23,257.59,66.83Z"/><path class="cls-21" d="M302,56.14a14.5,14.5,0,0,0,6.07-8.61c.2-.86.44-1.88,1.26-2.21,1-.4,2.1.7,2.13,1.79A5.14,5.14,0,0,1,310.2,50c1.43-.18,2.41-1.48,3.31-2.62a4.43,4.43,0,0,1,3.86-1.78A4,4,0,0,1,320,48c.95,2.47-.89,4.81-2.87,6.58s-6.54,4.65-9.09,5.37-2.45.89-4.67,2.34Z"/><path class="cls-4" d="M308.41,59.93,272.59,81.35c-4.67,3.5-23.36,12.46-23.36,12.46-3-.38,1.59-19.86,2-23.47h0c.44-3.62,3.74-2.81,6.79-2.44l8.3,2.16,37.43-16.39Z"/><path class="cls-27" d="M238.43,96c.83-3-.16-6.25-1-9.3s-1.46-6.43,0-9.25c1.06-2.06,3.09-3.52,4.05-5.63,1.16-2.56-2.62-8.35-3.17-11.1C237.14,55,239,51.29,240.2,46a5.15,5.15,0,0,0,5.05-5c.05-.74.1-1.5.18-2.28a5.83,5.83,0,0,0,.91.43,7.19,7.19,0,0,1,3.51,2.36,4.65,4.65,0,0,0,2.9,1.5,16.09,16.09,0,0,0,.76,13.72,8.27,8.27,0,0,1-2.38-3.31c-.5,3.08,2.25,5.58,4.15,8.06a17.49,17.49,0,0,1,3.57,11.32,6.91,6.91,0,0,1-1.41,4.34c-1.35,1.53-3.56,1.88-5.4,2.75a9.84,9.84,0,0,0-5,5.4c-.71,1.92-.8,4-1.38,6-1.73,5.92-10.85,12.89-14.41,8.75C234.08,101.56,237.61,99,238.43,96Z"/><path class="cls-34" d="M265.59,132.18c2.82,5.75,10.64,20.55,16.37,31.39l17.77-30.47c2.09-3.75,6-10.7,9.21-16.46l9.1,5.3c4.61,2.69,7.47,1.07,6.34-3.62l-3.18-13.17-4.11-17L313.92,75a7.77,7.77,0,0,0-10-5.85l-12.35,4.13-16,5.33-12.34,4.12c-4.39,1.46-4.21,4.87.41,7.55l6.71,3.92c-3.43,6.95-7.46,15.15-8.48,17.51-1.84,4.25-.7,11.59,3.7,20.52Z"/><path class="cls-35" d="M437,130.19,451.7,161c5.14-9.94,13.87-27.19,17.44-34.65,4.77-10,6.12-18.63,3.92-23.18S460,76.46,460,76.46a7,7,0,0,0-10.28-3L424.8,89.52a9,9,0,0,0-2.87,11.5s7.57,14.27,11.79,22.26l2.63,5a7,7,0,0,1,.66,1.9Z"/><path class="cls-36" d="M448.07,166.81c.58-1,1.9-3.56,3.63-6.9L437,129.13c.31,1.79-.55,3-2.66,3l-15.19.09-.08-9.54c-.05-5.54-2.81-7.34-6.13-4l-9.35,9.4-12.09,12.14-9.35,9.41a8.46,8.46,0,0,0,.09,12l9.52,9.23,12.29,11.92,9.51,9.23c3.38,3.27,6.12,1.42,6.06-4.12l-.08-9.07,11.64-.07c10.57-.06,14.56-7.92,16.88-12Z"/><path class="cls-37" d="M486.32,304.33l-1.6,10.88-32,217.18c-1.53,6.83-10.73,11.91-21.59,11.91H297.91c-10.94,0-20.18-5.14-21.62-12L243.18,300.15l-1.75-12.27c-.67-.42,75.42-.14,143.55.19,30.94.15,60.23.32,79.95.43,10.92.07,19.7,5.18,21.34,11.65q.09.38.15.75h0A8.84,8.84,0,0,1,486.32,304.33Z"/><rect class="cls-38" x="261.26" y="499.41" width="20.72" height="44.49" rx="9.16"/><path class="cls-39" d="M500.34,300H383.24l0,.13L347.77,544.3h83.34c10.86,0,20.06-5.08,21.59-11.91l32-217.18,1.6-10.88a8.84,8.84,0,0,0,.1-3.43h0q-.06-.37-.15-.75h13.09A3.56,3.56,0,0,0,500.34,300Z"/><rect class="cls-38" x="447.1" y="499.41" width="20.72" height="44.49" rx="9.16"/><rect class="cls-40" x="243.9" y="296.12" width="243.92" height="8.88"/><path class="cls-41" d="M503.07,267.42a6.77,6.77,0,0,0-1.57-4.12,3,3,0,0,0-2.14-1H230.69c-2.06,0-3.73,2.56-3.73,5.73v25.07c0,3.17,1.67,5.74,3.73,5.74H499.36c1.61,0,3-1.58,3.51-3.78a8.78,8.78,0,0,0,.22-2V268A5.52,5.52,0,0,0,503.07,267.42Z"/><path class="cls-39" d="M503.07,267.42a6.77,6.77,0,0,0-1.57-4.12,3,3,0,0,0-2.14-1h-114l-4.1,36.54H499.36c1.61,0,3-1.58,3.51-3.78a8.78,8.78,0,0,0,.22-2V268A5.52,5.52,0,0,0,503.07,267.42Z"/><path class="cls-42" d="M299.73,133.1,282,163.57c3.19,6,5.74,10.85,6.41,12.19,1.88,3.74,4.56,11.06,21.52,11l24.65-.15a8.06,8.06,0,0,0,7.79-8.27l-.16-30.52a8,8,0,0,0-7.89-8.18l-33.67.2c-3,0-3.42-2.09-2.36-4.06l1.48-2.64Z"/><path class="cls-28" d="M425.82,74.05s.52,4.23-1.66,4.62S411.65,77.6,410.74,77c-.74-.51,3.36-1,4.95-1.12a.12.12,0,0,0,.09-.09.1.1,0,0,0-.08-.1c-1.7-.37-6.47-1.48-6.51-2.34s4.76-.39,6.63-.18a.09.09,0,0,0,.05-.18c-1.76-.69-6.29-2.57-6.35-3.52s5,.47,6.58.94a.11.11,0,0,0,.11,0,.11.11,0,0,0,0-.12c-1.13-.93-4.44-3.76-4-4.28s6.36,3,8.46,4.29a.38.38,0,0,0,.41,0,.4.4,0,0,0,.17-.38c-.21-1.28-.5-3.56.15-3.67C422.31,66,423.89,72.47,425.82,74.05Z"/><polygon points="361.76 543.06 396.07 304.19 393.21 303.78 358.84 543.06 361.76 543.06"/><polygon points="300.5 543.06 334.75 304.58 331.89 304.17 297.57 543.06 300.5 543.06"/><rect x="328.41" y="336.93" width="61.32" height="2.89" transform="translate(-2.16 2.31) rotate(-0.37)"/><rect x="323.46" y="371.37" width="61.32" height="2.89" transform="translate(-2.38 2.28) rotate(-0.37)"/><rect x="318.51" y="405.82" width="61.32" height="2.89" transform="translate(-2.6 2.24) rotate(-0.37)"/><rect x="313.56" y="440.26" width="61.32" height="2.89" transform="translate(-2.82 2.21) rotate(-0.37)"/><rect x="308.62" y="474.7" width="61.32" height="2.89" transform="translate(-3.04 2.18) rotate(-0.37)"/><rect x="303.67" y="509.15" width="61.32" height="2.89" transform="translate(-3.26 2.15) rotate(-0.37)"/><path class="cls-28" d="M409.56,197.89s1.49,4.92,4.08,4.28,13.28-7.25,14-8.4c.56-.92-4.18.57-6,1.17a.1.1,0,0,1-.13-.06.1.1,0,0,1,0-.14c1.7-1.24,6.42-4.78,6-5.75s-5.43,1.89-7.4,3a.1.1,0,0,1-.14,0,.1.1,0,0,1,0-.15c1.6-1.61,5.68-5.88,5.29-7s-5.31,3-6.8,4.23a.12.12,0,0,1-.15,0,.11.11,0,0,1,0-.14c.78-1.57,3.06-6.29,2.29-6.64s-5.55,6.4-7.24,8.83a.46.46,0,0,1-.47.19.44.44,0,0,1-.36-.34c-.39-1.5-1.18-4.16-1.95-4C409.53,187.3,410.92,195.21,409.56,197.89Z"/><path class="cls-43" d="M368.16,286.93A281.23,281.23,0,0,0,364.65,251c-.94-5.75-2.06-11.62-1-17.36.6-3.38,1.86-7.13,0-10a10.7,10.7,0,0,0-2.36-2.39l-.95-.74a7.18,7.18,0,0,0,1.28-3.82c.07-3.34-.33-9.33-3.87-10.7-2.71-1.06-8.72-4.51-9.5-2-1.28,4.2-2.51,10.57-1.47,15.07a11,11,0,0,0-3.66,3.18,20,20,0,0,0-2.89,7c-2.63,10.52-2.95,21.48-2.51,32.32.13,3.34.33,6.73-.43,10-.71,3-.91,4.87,1.49,6.94s4.85,4.13,7.43,6c5,3.64,10.56,6.7,16.74,7.64a5,5,0,0,0,3.93-.6C368.15,290.5,368.22,288.59,368.16,286.93Z"/><path class="cls-43" d="M373.58,401.24c-1.42-1.29-3.4-.24-5.3-.4-3.18-.27-6.13.89-6-.33.71-8.82,1.8-18,2.53-26.81,1.59-19.09.58-36.73,3.08-55.51,1.22-9.13,2.51-15.49,3.26-25.39.08-1.07-.33-10.5-1.77-12.15s-.48-.9-2.45-1.28c-3.35-.64-4.34,2.3-7.24,4.46-5.3,4-5.39,13.09-5.92,19.57-1.28,15.64.83,31.22.48,46.83a427,427,0,0,0,2.26,53.39,3.19,3.19,0,0,0,1.86,2.78c4.37,1.59,6.41.45,11.13-.26.51-.08,3.36-.91,3.84-1.06C374.27,404.77,374.43,402,373.58,401.24Z"/><path class="cls-43" d="M374.1,183.33c-.83-7.22-6.49-12.15-14.22-13.4-5.95-1-11.84-.43-15.44,4.09A20.77,20.77,0,0,0,340.51,190c.8,5.53,3.39,10.71,6.61,15.41,2.65,3.87,6.57,7.85,11.54,7.59C371.11,212.32,375.07,191.74,374.1,183.33Z"/><path class="cls-11" d="M355.49,217.65c2.15-.85,4.12-2.26,6.36-2.78,3,10.35-2.21,21-3.53,31.73a99.68,99.68,0,0,0-.51,12c0,12.42.16,25.07,3.86,36.86a90.32,90.32,0,0,1-16.81,1.46c-1.4,0-3.17-.35-3.45-1.78a3.59,3.59,0,0,1,.19-1.58c6.19-21.77,9-41.79,3.42-63.68-.62-2.41-2.45-12.36.66-13.5S351.78,219.11,355.49,217.65Z"/><path class="cls-44" d="M369.2,403.23c-.36.77-1.42.84-2.25.79q-3.57-.19-7.17-.1c-1.35,0-2.87-.15-4,.64.17.43.94,2.39,1.71,2.35,3.83.15,4.77.22,8,.12,3-.09,5.68,0,8.41-1.53a5,5,0,0,0,1.35-1.15c.39-.59.65-1.12.32-1.71a3.63,3.63,0,0,0-1.5-1.35,7.27,7.27,0,0,0-4.48-.8C366.84,401,369.9,401.74,369.2,403.23Z"/><path class="cls-43" d="M329.32,401.24c1.41-1.29,3.39-.24,5.3-.4,3.18-.27,6.13.89,6-.33-.72-8.82-1.8-18-2.54-26.81-1.59-19.09-.57-36.73-3.08-55.51-1.21-9.13-.65-16.1-1.4-26-.09-1.07-1.52-9.88-.08-11.53s.47-.9,2.44-1.28c3.35-.64,4.35,2.3,7.25,4.46,5.29,4,5.38,13.09,5.91,19.57,1.29,15.64-.82,31.22-.48,46.83a427,427,0,0,1-2.26,53.39,3.2,3.2,0,0,1-1.85,2.78c-4.38,1.59-6.42.45-11.13-.26-.52-.08-3.36-.91-3.85-1.06C328.63,404.77,328.47,402,329.32,401.24Z"/><path class="cls-44" d="M333.7,403.23c.36.77,1.41.84,2.24.79q3.58-.19,7.17-.1c1.35,0,2.88-.15,4,.64-.18.43-.95,2.39-1.72,2.35-3.83.15-4.77.22-8,.12-3-.09-5.69,0-8.41-1.53a4.87,4.87,0,0,1-1.36-1.15c-.38-.59-.64-1.12-.31-1.71a3.54,3.54,0,0,1,1.49-1.35,7.27,7.27,0,0,1,4.48-.8C336.06,401,333,401.74,333.7,403.23Z"/><path class="cls-45" d="M358.13,279.17c4.5,0,7.11-.55,11.47.57.86.23.78,2.11,1.31,2.82a5,5,0,0,1,.8,2.24c1.38,12.28,1.63,23-.28,35.18A353.33,353.33,0,0,0,368,399.1q-7.85-.45-15.71-.2c1.26-26,1.58-61,.89-87.06-1.77-4.67-1.71,8-1.92,11.8-1.33,24.89-.76,48.38-2.57,75.16-4.94-.89-9.77-.54-14.7-1.42l.51-9.35c.34-6.36,1.5-13,1.52-19.4.07-15.7-1.27-31.17-2.06-46.83-.4-7.89-1.86-15.65-1.34-23.54.33-5,.7-18,5.93-16.58,3.86,1.06,6.74-3,9.3-2.55C352.52,280,353.39,279.17,358.13,279.17Z"/><path class="cls-46" d="M371.12,247.56c3,0,12.62-9.33,12.62-9.33C385,237.85,404,219.8,419,204.46c-2.39-3.06-7.05-9.57-10.66-11.13-5,5.84-8.55,8.43-13.5,14.27-3.08,3.62-18.32,12.33-22.08,15.27Zm5.22-25.79c-1.35-1.58-5.27-1.07-8.23-1.37-.81-2.91-.92-5-3.25-5.07a6.6,6.6,0,0,0-4.25,1.82c-.74.32-1.46.71-2.15.95a9.13,9.13,0,0,1-6.74-.21,16.91,16.91,0,0,0-2-.82c-1.25-1.57-2.77-2.76-4.28-2.91-2.32-.24-4.11,2.48-5.35,5.23-3-.16-6.68,2.78-8.25,4.14-1,.88-3.73,3.85-5,3.75-2.54-.18,12,36.74,5.26,66.17a1.67,1.67,0,0,0,.12,1.25c-.18.93-.37,1.86-.57,2.82,6.91,2,8,1.87,15.18,1.52a.76.76,0,0,0,0-.26,16.86,16.86,0,0,0,3.55.07l3.48-.23a11.92,11.92,0,0,0,3-.49c6.45,1,11.27-1.13,18-1.95-8.89-31.06-6.18-38-4-47.36Z"/><path class="cls-20" d="M337.3,180.82a12.1,12.1,0,0,1,3.57-8.09l.12-.11c-1.13-.81-2.49-1.89-2.52-2.63-.06-1.25,3-.73,4-1.06a31.47,31.47,0,0,0,4.59-2.16c4.09-2.07,9-3.18,13.27-1.54a5.79,5.79,0,0,1,3,2.29,4.57,4.57,0,0,1,.59,2.24,6,6,0,0,1,2.31.07,13,13,0,0,1,4.29,2.07,16,16,0,0,1,3.15,2.59,12.12,12.12,0,0,1,2.68,8.43,28.9,28.9,0,0,1-2,8.8c-.79,2.19-1.65,4.35-2.6,6.47-.83,1.87-1.91,3.87-3.65,4.79a31.86,31.86,0,0,1-8.25,9.28,11,11,0,0,0,2.53-7L358,212.91a14.43,14.43,0,0,1-.59-4.38,11.65,11.65,0,0,0-1.62,4.39l-1.6-2.4a15.4,15.4,0,0,1-1.16,4c-.39-1.56-.79-3.12-1.19-4.69a8.18,8.18,0,0,0-1.14,3.88l-1.95-4.65a10,10,0,0,0-.73,3.88c-1.56-3.49-3.73-6.36-5.29-9.85a41.2,41.2,0,0,1-2.39-5.56,15.2,15.2,0,0,1-.35-1.86c-.61-2-1.17-3.94-1.66-5.94A28.63,28.63,0,0,1,337.3,180.82Z"/><path class="cls-43" d="M372,198.18a.26.26,0,0,0,.27-.27,2.52,2.52,0,0,0-.91-1.88c-.86-.44-3,.1-3.85,1.88s.61,4.5,1.47,4.94,1.12-.81,2-2.23Z"/><path class="cls-28" d="M307.07,184.9s-3.19,4-5.39,2.5-9.75-11.66-10-13c-.18-1.07,3.71,2.06,5.2,3.29a.1.1,0,0,0,.14,0,.1.1,0,0,0,0-.14c-1.14-1.79-4.25-6.83-3.55-7.6s4.39,3.76,5.81,5.55a.12.12,0,0,0,.15,0,.11.11,0,0,0,0-.15c-.9-2.1-3.15-7.58-2.39-8.45s3.89,4.71,4.81,6.45a.12.12,0,0,0,.13.06.11.11,0,0,0,.08-.12c-.15-1.76-.55-7,.29-7.06s2.85,8,3.54,10.92a.45.45,0,0,0,.36.35.45.45,0,0,0,.47-.18c.91-1.27,2.63-3.46,3.28-3C311,175,306.78,181.89,307.07,184.9Z"/><path class="cls-46" d="M339,218.67c-3-3.72-15.86-15.66-18-19.89-3.5-6.82-6.41-10.15-9.91-17-3.86.69-9.89,6-12.91,8.41,11.16,18.36,25.5,40.24,26.67,40.91,0,0,7.23,11.26,10.17,12Z"/><path class="cls-47" d="M50.26,275.07c0,7.12-4,16.78-12.71,15-4.56-.81-7.65-4.7-9.26-8.86-2-5.77.4-11.95,5.5-15.57a10.16,10.16,0,0,1,15.53,4.74A12.17,12.17,0,0,1,50.26,275.07Z"/><path class="cls-48" d="M651.1,241.63c-22.49,10.39-58.87,11.57-65.92-18.56-4-15.6,3.85-31,14.69-42.07,15.37-14.69,38.39-15.94,57.21-5a35.35,35.35,0,0,1,7.38,56A41.93,41.93,0,0,1,651.1,241.63Z"/><path class="cls-11" d="M143.6,133.65c.07,11.88-6.65,28-21.19,25.09C114.8,157.4,109.65,150.9,107,144c-3.36-9.63.67-19.93,9.18-26A17,17,0,0,1,142,125.9,19.9,19.9,0,0,1,143.6,133.65Z"/></g></g></g></svg>