<svg xmlns="http://www.w3.org/2000/svg" viewBox="0 0 199.8 199.8"><defs><style>.cls-1{fill:#ff9e22;}.cls-2{fill:#e17726;}.cls-3{fill:#eef4ff;}.cls-4{fill:#d6e9f8;}.cls-5{fill:#804111;}.cls-6{fill:#62320d;}.cls-7{fill:#464646;}.cls-8{fill:#2d2d2d;}</style></defs><g id="Layer_2" data-name="Layer 2"><g id="Ñëîé_1" data-name="Ñëîé 1"><circle class="cls-1" cx="99.9" cy="99.9" r="99.9"/><path class="cls-2" d="M34.06,108.34l88.8,88.81a100,100,0,0,0,74.4-74.78L174.79,99.9Z"/><path class="cls-3" d="M174.79,99.9s-33.26,41-74.29,41-74.3-41-74.3-41,33.26-41,74.3-41S174.79,99.9,174.79,99.9Z"/><path class="cls-4" d="M174.79,99.9s-33.26,41-74.29,41v-82C141.53,58.89,174.79,99.9,174.79,99.9Z"/><circle class="cls-5" cx="100.5" cy="99.9" r="38.54" transform="translate(-7.35 191.81) rotate(-85.27)"/><path class="cls-6" d="M139,99.9a38.54,38.54,0,0,1-38.54,38.54V61.35A38.55,38.55,0,0,1,139,99.9Z"/><path class="cls-7" d="M124.73,99.9a24.24,24.24,0,0,1-47.29,7.5l-.06-14.8a24.24,24.24,0,0,1,47.35,7.3Z"/><path class="cls-3" d="M77.38,92.6a24.29,24.29,0,0,0,.07,14.8L92.21,100Z"/><path class="cls-8" d="M124.73,99.9A24.23,24.23,0,0,0,100.5,75.66v48.47A24.23,24.23,0,0,0,124.73,99.9Z"/></g></g></svg>